<mxfile host="app.diagrams.net" modified="2024-06-02T18:15:24.271Z" agent="Mozilla/5.0 (Windows NT 10.0; Win64; x64) AppleWebKit/537.36 (KHTML, like Gecko) Chrome/123.0.0.0 Safari/537.36 OPR/109.0.0.0" etag="fXtt0vZuIgR0QUxcFHhq" version="24.4.8" type="github">
  <diagram name="Página-1" id="IzvLmjs4RYYp6wVvC3dK">
    <mxGraphModel dx="5640" dy="3613" grid="1" gridSize="10" guides="1" tooltips="1" connect="1" arrows="1" fold="1" page="1" pageScale="1" pageWidth="2910" pageHeight="2230" math="0" shadow="0">
      <root>
        <mxCell id="0" />
        <mxCell id="1" parent="0" />
        <mxCell id="QxGWYKzPWFhETCY1hco7-469" value="" style="group" vertex="1" connectable="0" parent="1">
          <mxGeometry width="2910" height="2230" as="geometry" />
        </mxCell>
        <mxCell id="QxGWYKzPWFhETCY1hco7-466" value="" style="rounded=0;whiteSpace=wrap;html=1;fontFamily=Helvetica;fontSize=11;fontColor=#333333;labelBackgroundColor=default;fillColor=#f5f5f5;strokeColor=#666666;" vertex="1" parent="QxGWYKzPWFhETCY1hco7-469">
          <mxGeometry width="2910" height="2230" as="geometry" />
        </mxCell>
        <mxCell id="QxGWYKzPWFhETCY1hco7-468" value="" style="rounded=1;whiteSpace=wrap;html=1;fontFamily=Helvetica;fontSize=11;labelBackgroundColor=default;fillColor=#f8cecc;strokeColor=#b85450;dashed=1;dashPattern=8 8;" vertex="1" parent="QxGWYKzPWFhETCY1hco7-469">
          <mxGeometry x="1710" y="99" width="1150" height="1081" as="geometry" />
        </mxCell>
        <mxCell id="QxGWYKzPWFhETCY1hco7-467" value="" style="rounded=1;whiteSpace=wrap;html=1;fontFamily=Helvetica;fontSize=11;labelBackgroundColor=default;fillColor=#fff2cc;strokeColor=#d6b656;dashed=1;dashPattern=8 8;" vertex="1" parent="QxGWYKzPWFhETCY1hco7-469">
          <mxGeometry x="60" y="90" width="1150" height="690" as="geometry" />
        </mxCell>
        <mxCell id="QxGWYKzPWFhETCY1hco7-464" value="" style="rounded=1;whiteSpace=wrap;html=1;fontFamily=Helvetica;fontSize=11;labelBackgroundColor=default;fillColor=#dae8fc;strokeColor=#6c8ebf;dashed=1;dashPattern=8 8;" vertex="1" parent="QxGWYKzPWFhETCY1hco7-469">
          <mxGeometry x="60" y="825" width="1150" height="1355" as="geometry" />
        </mxCell>
        <mxCell id="QxGWYKzPWFhETCY1hco7-262" value="&lt;font style=&quot;font-size: 14px;&quot;&gt;Significa Medir&lt;/font&gt;" style="edgeStyle=orthogonalEdgeStyle;rounded=0;orthogonalLoop=1;jettySize=auto;html=1;exitX=1;exitY=0.5;exitDx=0;exitDy=0;entryX=0;entryY=0.5;entryDx=0;entryDy=0;curved=1;" edge="1" parent="QxGWYKzPWFhETCY1hco7-469" source="QxGWYKzPWFhETCY1hco7-259" target="QxGWYKzPWFhETCY1hco7-263">
          <mxGeometry relative="1" as="geometry">
            <mxPoint x="1760" y="515" as="targetPoint" />
          </mxGeometry>
        </mxCell>
        <mxCell id="QxGWYKzPWFhETCY1hco7-259" value="&lt;font size=&quot;1&quot; style=&quot;&quot;&gt;&lt;b style=&quot;font-size: 16px;&quot;&gt;Medição de Pressão&lt;/b&gt;&lt;/font&gt;" style="ellipse;whiteSpace=wrap;html=1;" vertex="1" parent="QxGWYKzPWFhETCY1hco7-469">
          <mxGeometry x="1460" y="475" width="120" height="80" as="geometry" />
        </mxCell>
        <mxCell id="QxGWYKzPWFhETCY1hco7-265" value="&lt;font style=&quot;font-size: 13px;&quot;&gt;Tem mnêmonico de&lt;/font&gt;" style="edgeStyle=orthogonalEdgeStyle;curved=1;rounded=0;orthogonalLoop=1;jettySize=auto;html=1;exitX=1;exitY=0.5;exitDx=0;exitDy=0;strokeColor=default;align=center;verticalAlign=middle;fontFamily=Helvetica;fontSize=11;fontColor=default;labelBackgroundColor=default;endArrow=none;endFill=0;" edge="1" parent="QxGWYKzPWFhETCY1hco7-469" source="QxGWYKzPWFhETCY1hco7-263">
          <mxGeometry x="0.6129" y="-20" relative="1" as="geometry">
            <mxPoint x="2030" y="355" as="targetPoint" />
            <Array as="points">
              <mxPoint x="1940" y="515" />
              <mxPoint x="1940" y="355" />
            </Array>
            <mxPoint as="offset" />
          </mxGeometry>
        </mxCell>
        <mxCell id="QxGWYKzPWFhETCY1hco7-282" value="&lt;font style=&quot;font-size: 14px;&quot;&gt;É medido em&lt;/font&gt;" style="edgeStyle=orthogonalEdgeStyle;curved=1;rounded=0;orthogonalLoop=1;jettySize=auto;html=1;exitX=1;exitY=0.5;exitDx=0;exitDy=0;strokeColor=default;align=center;verticalAlign=middle;fontFamily=Helvetica;fontSize=11;fontColor=default;labelBackgroundColor=default;endArrow=none;endFill=0;" edge="1" parent="QxGWYKzPWFhETCY1hco7-469" source="QxGWYKzPWFhETCY1hco7-263">
          <mxGeometry y="-10" relative="1" as="geometry">
            <mxPoint x="2060" y="165" as="targetPoint" />
            <Array as="points">
              <mxPoint x="1910" y="515" />
              <mxPoint x="1910" y="165" />
            </Array>
            <mxPoint as="offset" />
          </mxGeometry>
        </mxCell>
        <mxCell id="QxGWYKzPWFhETCY1hco7-299" value="&lt;font style=&quot;font-size: 14px;&quot;&gt;É definido por&lt;/font&gt;" style="edgeStyle=orthogonalEdgeStyle;curved=1;rounded=0;orthogonalLoop=1;jettySize=auto;html=1;exitX=1;exitY=0.5;exitDx=0;exitDy=0;strokeColor=default;align=center;verticalAlign=middle;fontFamily=Helvetica;fontSize=11;fontColor=default;labelBackgroundColor=default;endArrow=classic;entryX=0;entryY=0.5;entryDx=0;entryDy=0;" edge="1" parent="QxGWYKzPWFhETCY1hco7-469" source="QxGWYKzPWFhETCY1hco7-263" target="QxGWYKzPWFhETCY1hco7-300">
          <mxGeometry relative="1" as="geometry">
            <mxPoint x="2060" y="514.6666666666667" as="targetPoint" />
          </mxGeometry>
        </mxCell>
        <mxCell id="QxGWYKzPWFhETCY1hco7-303" value="&lt;span style=&quot;font-size: 14px;&quot;&gt;É importante saber&lt;/span&gt;" style="edgeStyle=orthogonalEdgeStyle;curved=1;rounded=0;orthogonalLoop=1;jettySize=auto;html=1;strokeColor=default;align=center;verticalAlign=middle;fontFamily=Helvetica;fontSize=11;fontColor=default;labelBackgroundColor=default;endArrow=classic;entryX=0;entryY=0.5;entryDx=0;entryDy=0;exitX=1;exitY=0.5;exitDx=0;exitDy=0;" edge="1" parent="QxGWYKzPWFhETCY1hco7-469" source="QxGWYKzPWFhETCY1hco7-263" target="QxGWYKzPWFhETCY1hco7-302">
          <mxGeometry relative="1" as="geometry" />
        </mxCell>
        <mxCell id="QxGWYKzPWFhETCY1hco7-263" value="&lt;font size=&quot;1&quot; style=&quot;&quot;&gt;&lt;b style=&quot;font-size: 16px;&quot;&gt;Pressão&lt;/b&gt;&lt;/font&gt;" style="rounded=1;whiteSpace=wrap;html=1;fontFamily=Helvetica;fontSize=11;fontColor=default;labelBackgroundColor=default;" vertex="1" parent="QxGWYKzPWFhETCY1hco7-469">
          <mxGeometry x="1760" y="485" width="120" height="60" as="geometry" />
        </mxCell>
        <mxCell id="QxGWYKzPWFhETCY1hco7-266" value="" style="endArrow=classic;html=1;rounded=0;strokeColor=default;align=center;verticalAlign=middle;fontFamily=Helvetica;fontSize=11;fontColor=default;labelBackgroundColor=default;edgeStyle=orthogonalEdgeStyle;curved=1;" edge="1" parent="QxGWYKzPWFhETCY1hco7-469">
          <mxGeometry relative="1" as="geometry">
            <mxPoint x="2030" y="353.8199999999997" as="sourcePoint" />
            <mxPoint x="2150" y="255" as="targetPoint" />
            <Array as="points">
              <mxPoint x="2030" y="255" />
            </Array>
          </mxGeometry>
        </mxCell>
        <mxCell id="QxGWYKzPWFhETCY1hco7-267" value="&lt;font style=&quot;font-size: 14px;&quot;&gt;Elemento Primário: PE&lt;/font&gt;" style="edgeLabel;resizable=0;html=1;;align=center;verticalAlign=middle;fontFamily=Helvetica;fontSize=11;fontColor=default;labelBackgroundColor=default;" connectable="0" vertex="1" parent="QxGWYKzPWFhETCY1hco7-266">
          <mxGeometry relative="1" as="geometry">
            <mxPoint x="180" as="offset" />
          </mxGeometry>
        </mxCell>
        <mxCell id="QxGWYKzPWFhETCY1hco7-268" value="" style="endArrow=classic;html=1;rounded=0;strokeColor=default;align=center;verticalAlign=middle;fontFamily=Helvetica;fontSize=11;fontColor=default;labelBackgroundColor=default;edgeStyle=orthogonalEdgeStyle;curved=1;" edge="1" parent="QxGWYKzPWFhETCY1hco7-469">
          <mxGeometry relative="1" as="geometry">
            <mxPoint x="2030" y="355" as="sourcePoint" />
            <mxPoint x="2150" y="285" as="targetPoint" />
            <Array as="points">
              <mxPoint x="2030" y="285" />
              <mxPoint x="2150" y="285" />
            </Array>
          </mxGeometry>
        </mxCell>
        <mxCell id="QxGWYKzPWFhETCY1hco7-269" value="&lt;font style=&quot;font-size: 14px;&quot;&gt;Transmissor com Indicação: PIT&lt;/font&gt;" style="edgeLabel;resizable=0;html=1;;align=center;verticalAlign=middle;fontFamily=Helvetica;fontSize=11;fontColor=default;labelBackgroundColor=default;" connectable="0" vertex="1" parent="QxGWYKzPWFhETCY1hco7-268">
          <mxGeometry relative="1" as="geometry">
            <mxPoint x="195" as="offset" />
          </mxGeometry>
        </mxCell>
        <mxCell id="QxGWYKzPWFhETCY1hco7-270" value="" style="endArrow=classic;html=1;rounded=0;strokeColor=default;align=center;verticalAlign=middle;fontFamily=Helvetica;fontSize=11;fontColor=default;labelBackgroundColor=default;edgeStyle=orthogonalEdgeStyle;curved=1;" edge="1" parent="QxGWYKzPWFhETCY1hco7-469">
          <mxGeometry relative="1" as="geometry">
            <mxPoint x="2030" y="355" as="sourcePoint" />
            <mxPoint x="2150" y="315" as="targetPoint" />
            <Array as="points">
              <mxPoint x="2030" y="315" />
              <mxPoint x="2150" y="315" />
            </Array>
          </mxGeometry>
        </mxCell>
        <mxCell id="QxGWYKzPWFhETCY1hco7-271" value="&lt;font style=&quot;font-size: 14px;&quot;&gt;Transmissor com Registro: PRT&lt;/font&gt;" style="edgeLabel;resizable=0;html=1;;align=center;verticalAlign=middle;fontFamily=Helvetica;fontSize=11;fontColor=default;labelBackgroundColor=default;" connectable="0" vertex="1" parent="QxGWYKzPWFhETCY1hco7-270">
          <mxGeometry relative="1" as="geometry">
            <mxPoint x="180" as="offset" />
          </mxGeometry>
        </mxCell>
        <mxCell id="QxGWYKzPWFhETCY1hco7-272" value="" style="endArrow=classic;html=1;rounded=0;strokeColor=default;align=center;verticalAlign=middle;fontFamily=Helvetica;fontSize=11;fontColor=default;labelBackgroundColor=default;edgeStyle=orthogonalEdgeStyle;curved=1;" edge="1" parent="QxGWYKzPWFhETCY1hco7-469">
          <mxGeometry relative="1" as="geometry">
            <mxPoint x="2030" y="355" as="sourcePoint" />
            <mxPoint x="2150" y="335" as="targetPoint" />
            <Array as="points">
              <mxPoint x="2030" y="335" />
              <mxPoint x="2150" y="335" />
            </Array>
          </mxGeometry>
        </mxCell>
        <mxCell id="QxGWYKzPWFhETCY1hco7-273" value="&lt;font style=&quot;font-size: 14px;&quot;&gt;Controlador com Indicação: PIC&lt;/font&gt;" style="edgeLabel;resizable=0;html=1;;align=center;verticalAlign=middle;fontFamily=Helvetica;fontSize=11;fontColor=default;labelBackgroundColor=default;" connectable="0" vertex="1" parent="QxGWYKzPWFhETCY1hco7-272">
          <mxGeometry relative="1" as="geometry">
            <mxPoint x="169" as="offset" />
          </mxGeometry>
        </mxCell>
        <mxCell id="QxGWYKzPWFhETCY1hco7-274" value="" style="endArrow=classic;html=1;rounded=0;strokeColor=default;align=center;verticalAlign=middle;fontFamily=Helvetica;fontSize=11;fontColor=default;labelBackgroundColor=default;edgeStyle=orthogonalEdgeStyle;curved=1;" edge="1" parent="QxGWYKzPWFhETCY1hco7-469">
          <mxGeometry relative="1" as="geometry">
            <mxPoint x="2030" y="355" as="sourcePoint" />
            <mxPoint x="2150" y="355" as="targetPoint" />
            <Array as="points">
              <mxPoint x="2030" y="355" />
            </Array>
          </mxGeometry>
        </mxCell>
        <mxCell id="QxGWYKzPWFhETCY1hco7-275" value="&lt;font style=&quot;font-size: 14px;&quot;&gt;Alarme Baixo: PSL&lt;/font&gt;" style="edgeLabel;resizable=0;html=1;;align=center;verticalAlign=middle;fontFamily=Helvetica;fontSize=11;fontColor=default;labelBackgroundColor=default;" connectable="0" vertex="1" parent="QxGWYKzPWFhETCY1hco7-274">
          <mxGeometry relative="1" as="geometry">
            <mxPoint x="120" as="offset" />
          </mxGeometry>
        </mxCell>
        <mxCell id="QxGWYKzPWFhETCY1hco7-276" value="" style="endArrow=classic;html=1;rounded=0;strokeColor=default;align=center;verticalAlign=middle;fontFamily=Helvetica;fontSize=11;fontColor=default;labelBackgroundColor=default;edgeStyle=orthogonalEdgeStyle;curved=1;" edge="1" parent="QxGWYKzPWFhETCY1hco7-469">
          <mxGeometry relative="1" as="geometry">
            <mxPoint x="2030" y="355" as="sourcePoint" />
            <mxPoint x="2150" y="385" as="targetPoint" />
            <Array as="points">
              <mxPoint x="2030" y="385" />
              <mxPoint x="2150" y="385" />
            </Array>
          </mxGeometry>
        </mxCell>
        <mxCell id="QxGWYKzPWFhETCY1hco7-277" value="&lt;font style=&quot;font-size: 14px;&quot;&gt;Alarme Alto: PHL&lt;/font&gt;" style="edgeLabel;resizable=0;html=1;;align=center;verticalAlign=middle;fontFamily=Helvetica;fontSize=11;fontColor=default;labelBackgroundColor=default;" connectable="0" vertex="1" parent="QxGWYKzPWFhETCY1hco7-276">
          <mxGeometry relative="1" as="geometry">
            <mxPoint x="125" as="offset" />
          </mxGeometry>
        </mxCell>
        <mxCell id="QxGWYKzPWFhETCY1hco7-278" value="" style="endArrow=classic;html=1;rounded=0;strokeColor=default;align=center;verticalAlign=middle;fontFamily=Helvetica;fontSize=11;fontColor=default;labelBackgroundColor=default;edgeStyle=orthogonalEdgeStyle;curved=1;" edge="1" parent="QxGWYKzPWFhETCY1hco7-469">
          <mxGeometry relative="1" as="geometry">
            <mxPoint x="2030" y="355" as="sourcePoint" />
            <mxPoint x="2150" y="415" as="targetPoint" />
            <Array as="points">
              <mxPoint x="2030" y="415" />
              <mxPoint x="2150" y="415" />
            </Array>
          </mxGeometry>
        </mxCell>
        <mxCell id="QxGWYKzPWFhETCY1hco7-279" value="&lt;font style=&quot;font-size: 14px;&quot;&gt;Chave de Detecção de Alto e Baixo: PSHL&lt;/font&gt;" style="edgeLabel;resizable=0;html=1;;align=center;verticalAlign=middle;fontFamily=Helvetica;fontSize=11;fontColor=default;labelBackgroundColor=default;" connectable="0" vertex="1" parent="QxGWYKzPWFhETCY1hco7-278">
          <mxGeometry relative="1" as="geometry">
            <mxPoint x="219" as="offset" />
          </mxGeometry>
        </mxCell>
        <mxCell id="QxGWYKzPWFhETCY1hco7-280" value="" style="endArrow=classic;html=1;rounded=0;strokeColor=default;align=center;verticalAlign=middle;fontFamily=Helvetica;fontSize=11;fontColor=default;labelBackgroundColor=default;edgeStyle=orthogonalEdgeStyle;curved=1;" edge="1" parent="QxGWYKzPWFhETCY1hco7-469">
          <mxGeometry relative="1" as="geometry">
            <mxPoint x="2030" y="355" as="sourcePoint" />
            <mxPoint x="2150" y="435" as="targetPoint" />
            <Array as="points">
              <mxPoint x="2030" y="435" />
              <mxPoint x="2150" y="435" />
            </Array>
          </mxGeometry>
        </mxCell>
        <mxCell id="QxGWYKzPWFhETCY1hco7-281" value="&lt;font style=&quot;font-size: 14px;&quot;&gt;Elemento Final de Controle: PZ&lt;/font&gt;" style="edgeLabel;resizable=0;html=1;;align=center;verticalAlign=middle;fontFamily=Helvetica;fontSize=11;fontColor=default;labelBackgroundColor=default;" connectable="0" vertex="1" parent="QxGWYKzPWFhETCY1hco7-280">
          <mxGeometry relative="1" as="geometry">
            <mxPoint x="200" as="offset" />
          </mxGeometry>
        </mxCell>
        <mxCell id="QxGWYKzPWFhETCY1hco7-283" value="&lt;font style=&quot;font-size: 14px;&quot;&gt;Pa ou N/m² (SI)&lt;/font&gt;" style="curved=1;endArrow=classic;html=1;rounded=0;strokeColor=default;align=center;verticalAlign=middle;fontFamily=Helvetica;fontSize=11;fontColor=default;labelBackgroundColor=default;edgeStyle=orthogonalEdgeStyle;" edge="1" parent="QxGWYKzPWFhETCY1hco7-469">
          <mxGeometry x="1" y="-50" width="50" height="50" relative="1" as="geometry">
            <mxPoint x="2060" y="165" as="sourcePoint" />
            <mxPoint x="2110" y="105" as="targetPoint" />
            <Array as="points">
              <mxPoint x="2060" y="105" />
            </Array>
            <mxPoint x="50" y="-50" as="offset" />
          </mxGeometry>
        </mxCell>
        <mxCell id="QxGWYKzPWFhETCY1hco7-285" value="&lt;font style=&quot;font-size: 15px;&quot;&gt;atm&lt;/font&gt;" style="curved=1;endArrow=classic;html=1;rounded=0;strokeColor=default;align=center;verticalAlign=middle;fontFamily=Helvetica;fontSize=11;fontColor=default;labelBackgroundColor=default;edgeStyle=orthogonalEdgeStyle;" edge="1" parent="QxGWYKzPWFhETCY1hco7-469">
          <mxGeometry x="1" y="-20" width="50" height="50" relative="1" as="geometry">
            <mxPoint x="2060" y="165" as="sourcePoint" />
            <mxPoint x="2110" y="125" as="targetPoint" />
            <Array as="points">
              <mxPoint x="2060" y="125" />
            </Array>
            <mxPoint x="20" y="-20" as="offset" />
          </mxGeometry>
        </mxCell>
        <mxCell id="QxGWYKzPWFhETCY1hco7-286" value="&lt;font style=&quot;font-size: 14px;&quot;&gt;bar&lt;/font&gt;" style="curved=1;endArrow=classic;html=1;rounded=0;strokeColor=default;align=center;verticalAlign=middle;fontFamily=Helvetica;fontSize=11;fontColor=default;labelBackgroundColor=default;edgeStyle=orthogonalEdgeStyle;" edge="1" parent="QxGWYKzPWFhETCY1hco7-469">
          <mxGeometry x="1" y="20" width="50" height="50" relative="1" as="geometry">
            <mxPoint x="2060" y="165" as="sourcePoint" />
            <mxPoint x="2110" y="145" as="targetPoint" />
            <Array as="points">
              <mxPoint x="2060" y="145" />
            </Array>
            <mxPoint x="20" y="20" as="offset" />
          </mxGeometry>
        </mxCell>
        <mxCell id="QxGWYKzPWFhETCY1hco7-293" value="&lt;font style=&quot;font-size: 14px;&quot;&gt;torr ou mmHg&lt;/font&gt;" style="curved=1;endArrow=classic;html=1;rounded=0;strokeColor=default;align=center;verticalAlign=middle;fontFamily=Helvetica;fontSize=11;fontColor=default;labelBackgroundColor=default;edgeStyle=orthogonalEdgeStyle;" edge="1" parent="QxGWYKzPWFhETCY1hco7-469">
          <mxGeometry x="1" y="50" width="50" height="50" relative="1" as="geometry">
            <mxPoint x="2060" y="165" as="sourcePoint" />
            <mxPoint x="2110" y="165" as="targetPoint" />
            <Array as="points">
              <mxPoint x="2070" y="165" />
              <mxPoint x="2070" y="165" />
            </Array>
            <mxPoint x="50" y="50" as="offset" />
          </mxGeometry>
        </mxCell>
        <mxCell id="QxGWYKzPWFhETCY1hco7-294" value="&lt;font style=&quot;font-size: 14px;&quot;&gt;psi&lt;/font&gt;" style="curved=1;endArrow=classic;html=1;rounded=0;strokeColor=default;align=center;verticalAlign=middle;fontFamily=Helvetica;fontSize=11;fontColor=default;labelBackgroundColor=default;edgeStyle=orthogonalEdgeStyle;" edge="1" parent="QxGWYKzPWFhETCY1hco7-469">
          <mxGeometry x="1" y="10" width="50" height="50" relative="1" as="geometry">
            <mxPoint x="2060" y="165" as="sourcePoint" />
            <mxPoint x="2110" y="185" as="targetPoint" />
            <Array as="points">
              <mxPoint x="2060" y="185" />
            </Array>
            <mxPoint x="10" y="10" as="offset" />
          </mxGeometry>
        </mxCell>
        <mxCell id="QxGWYKzPWFhETCY1hco7-295" value="&lt;font style=&quot;font-size: 14px;&quot;&gt;kgf/cm²&lt;/font&gt;" style="curved=1;endArrow=classic;html=1;rounded=0;strokeColor=default;align=center;verticalAlign=middle;fontFamily=Helvetica;fontSize=11;fontColor=default;labelBackgroundColor=default;edgeStyle=orthogonalEdgeStyle;" edge="1" parent="QxGWYKzPWFhETCY1hco7-469">
          <mxGeometry x="1" y="30" width="50" height="50" relative="1" as="geometry">
            <mxPoint x="2060" y="165" as="sourcePoint" />
            <mxPoint x="2110" y="205" as="targetPoint" />
            <Array as="points">
              <mxPoint x="2060" y="205" />
            </Array>
            <mxPoint x="30" y="30" as="offset" />
          </mxGeometry>
        </mxCell>
        <mxCell id="QxGWYKzPWFhETCY1hco7-296" value="&lt;font style=&quot;font-size: 14px;&quot;&gt;mmH20&lt;/font&gt;" style="curved=1;endArrow=classic;html=1;rounded=0;strokeColor=default;align=center;verticalAlign=middle;fontFamily=Helvetica;fontSize=11;fontColor=default;labelBackgroundColor=default;edgeStyle=orthogonalEdgeStyle;" edge="1" parent="QxGWYKzPWFhETCY1hco7-469">
          <mxGeometry x="1" y="30" width="50" height="50" relative="1" as="geometry">
            <mxPoint x="2060" y="165" as="sourcePoint" />
            <mxPoint x="2110" y="225" as="targetPoint" />
            <Array as="points">
              <mxPoint x="2060" y="225" />
            </Array>
            <mxPoint x="30" y="30" as="offset" />
          </mxGeometry>
        </mxCell>
        <mxCell id="QxGWYKzPWFhETCY1hco7-300" value="&lt;font style=&quot;font-size: 16px;&quot;&gt;Força por unidade de Área&lt;/font&gt;" style="rounded=1;whiteSpace=wrap;html=1;fontFamily=Helvetica;fontSize=11;fontColor=default;labelBackgroundColor=default;" vertex="1" parent="QxGWYKzPWFhETCY1hco7-469">
          <mxGeometry x="2060" y="485" width="120" height="60" as="geometry" />
        </mxCell>
        <mxCell id="QxGWYKzPWFhETCY1hco7-307" style="edgeStyle=orthogonalEdgeStyle;curved=1;rounded=0;orthogonalLoop=1;jettySize=auto;html=1;exitX=1;exitY=0.5;exitDx=0;exitDy=0;entryX=0;entryY=0.5;entryDx=0;entryDy=0;strokeColor=default;align=center;verticalAlign=middle;fontFamily=Helvetica;fontSize=11;fontColor=default;labelBackgroundColor=default;endArrow=classic;" edge="1" parent="QxGWYKzPWFhETCY1hco7-469" source="QxGWYKzPWFhETCY1hco7-302" target="QxGWYKzPWFhETCY1hco7-306">
          <mxGeometry relative="1" as="geometry">
            <Array as="points">
              <mxPoint x="2130" y="695" />
              <mxPoint x="2130" y="1125" />
            </Array>
          </mxGeometry>
        </mxCell>
        <mxCell id="QxGWYKzPWFhETCY1hco7-308" style="edgeStyle=orthogonalEdgeStyle;curved=1;rounded=0;orthogonalLoop=1;jettySize=auto;html=1;exitX=1;exitY=0.5;exitDx=0;exitDy=0;entryX=0;entryY=0.5;entryDx=0;entryDy=0;strokeColor=default;align=center;verticalAlign=middle;fontFamily=Helvetica;fontSize=11;fontColor=default;labelBackgroundColor=default;endArrow=classic;" edge="1" parent="QxGWYKzPWFhETCY1hco7-469" source="QxGWYKzPWFhETCY1hco7-302" target="QxGWYKzPWFhETCY1hco7-304">
          <mxGeometry relative="1" as="geometry">
            <Array as="points">
              <mxPoint x="2140" y="695" />
              <mxPoint x="2140" y="995" />
            </Array>
          </mxGeometry>
        </mxCell>
        <mxCell id="QxGWYKzPWFhETCY1hco7-324" style="edgeStyle=orthogonalEdgeStyle;curved=1;rounded=0;orthogonalLoop=1;jettySize=auto;html=1;exitX=1;exitY=0.5;exitDx=0;exitDy=0;entryX=0;entryY=0.5;entryDx=0;entryDy=0;strokeColor=default;align=center;verticalAlign=middle;fontFamily=Helvetica;fontSize=11;fontColor=default;labelBackgroundColor=default;endArrow=classic;" edge="1" parent="QxGWYKzPWFhETCY1hco7-469" source="QxGWYKzPWFhETCY1hco7-302" target="QxGWYKzPWFhETCY1hco7-322">
          <mxGeometry relative="1" as="geometry">
            <Array as="points">
              <mxPoint x="2150" y="695" />
              <mxPoint x="2150" y="845" />
            </Array>
          </mxGeometry>
        </mxCell>
        <mxCell id="QxGWYKzPWFhETCY1hco7-334" style="edgeStyle=orthogonalEdgeStyle;curved=1;rounded=0;orthogonalLoop=1;jettySize=auto;html=1;exitX=1;exitY=0.5;exitDx=0;exitDy=0;entryX=0;entryY=0.5;entryDx=0;entryDy=0;strokeColor=default;align=center;verticalAlign=middle;fontFamily=Helvetica;fontSize=11;fontColor=default;labelBackgroundColor=default;endArrow=classic;" edge="1" parent="QxGWYKzPWFhETCY1hco7-469" source="QxGWYKzPWFhETCY1hco7-302" target="QxGWYKzPWFhETCY1hco7-331">
          <mxGeometry relative="1" as="geometry" />
        </mxCell>
        <mxCell id="QxGWYKzPWFhETCY1hco7-302" value="&lt;span style=&quot;font-size: 16px;&quot;&gt;Conceitos Gerais&lt;/span&gt;" style="whiteSpace=wrap;html=1;fontSize=11;rounded=1;labelBackgroundColor=default;" vertex="1" parent="QxGWYKzPWFhETCY1hco7-469">
          <mxGeometry x="1980" y="665" width="120" height="60" as="geometry" />
        </mxCell>
        <mxCell id="QxGWYKzPWFhETCY1hco7-309" value="&lt;font style=&quot;font-size: 14px;&quot;&gt;Definida por&lt;/font&gt;" style="edgeStyle=orthogonalEdgeStyle;curved=1;rounded=0;orthogonalLoop=1;jettySize=auto;html=1;exitX=1;exitY=0.25;exitDx=0;exitDy=0;strokeColor=default;align=center;verticalAlign=middle;fontFamily=Helvetica;fontSize=11;fontColor=default;labelBackgroundColor=default;endArrow=classic;entryX=0;entryY=0.5;entryDx=0;entryDy=0;" edge="1" parent="QxGWYKzPWFhETCY1hco7-469" source="QxGWYKzPWFhETCY1hco7-304" target="QxGWYKzPWFhETCY1hco7-315">
          <mxGeometry relative="1" as="geometry">
            <mxPoint x="2400" y="975" as="targetPoint" />
          </mxGeometry>
        </mxCell>
        <mxCell id="QxGWYKzPWFhETCY1hco7-319" value="&lt;font style=&quot;font-size: 14px;&quot;&gt;Soma&lt;/font&gt;" style="edgeStyle=orthogonalEdgeStyle;curved=1;rounded=0;orthogonalLoop=1;jettySize=auto;html=1;exitX=1;exitY=0.5;exitDx=0;exitDy=0;entryX=0;entryY=0.25;entryDx=0;entryDy=0;strokeColor=default;align=center;verticalAlign=middle;fontFamily=Helvetica;fontSize=11;fontColor=default;labelBackgroundColor=default;endArrow=classic;" edge="1" parent="QxGWYKzPWFhETCY1hco7-469" source="QxGWYKzPWFhETCY1hco7-304" target="QxGWYKzPWFhETCY1hco7-318">
          <mxGeometry relative="1" as="geometry" />
        </mxCell>
        <mxCell id="QxGWYKzPWFhETCY1hco7-304" value="&lt;font style=&quot;font-size: 16px;&quot;&gt;Pressão estática&lt;/font&gt;" style="whiteSpace=wrap;html=1;fontSize=11;rounded=1;labelBackgroundColor=default;" vertex="1" parent="QxGWYKzPWFhETCY1hco7-469">
          <mxGeometry x="2180" y="965" width="120" height="60" as="geometry" />
        </mxCell>
        <mxCell id="QxGWYKzPWFhETCY1hco7-320" value="&lt;font style=&quot;font-size: 14px;&quot;&gt;Soma&lt;/font&gt;" style="edgeStyle=orthogonalEdgeStyle;curved=1;rounded=0;orthogonalLoop=1;jettySize=auto;html=1;exitX=1;exitY=0.25;exitDx=0;exitDy=0;entryX=0;entryY=0.75;entryDx=0;entryDy=0;strokeColor=default;align=center;verticalAlign=middle;fontFamily=Helvetica;fontSize=11;fontColor=default;labelBackgroundColor=default;endArrow=classic;" edge="1" parent="QxGWYKzPWFhETCY1hco7-469" source="QxGWYKzPWFhETCY1hco7-306" target="QxGWYKzPWFhETCY1hco7-318">
          <mxGeometry relative="1" as="geometry" />
        </mxCell>
        <mxCell id="QxGWYKzPWFhETCY1hco7-306" value="&lt;font style=&quot;font-size: 16px;&quot;&gt;Pressão&lt;/font&gt;&lt;div&gt;&lt;font style=&quot;font-size: 16px;&quot;&gt;dinâmica&lt;/font&gt;&lt;/div&gt;" style="whiteSpace=wrap;html=1;fontSize=11;rounded=1;labelBackgroundColor=default;" vertex="1" parent="QxGWYKzPWFhETCY1hco7-469">
          <mxGeometry x="2180" y="1095" width="120" height="60" as="geometry" />
        </mxCell>
        <mxCell id="QxGWYKzPWFhETCY1hco7-315" value="&lt;font style=&quot;font-size: 14px;&quot;&gt;Pressão exercida perpendicularmente à parede de uma tubulação.&amp;nbsp;&lt;/font&gt;" style="rounded=1;whiteSpace=wrap;html=1;" vertex="1" parent="QxGWYKzPWFhETCY1hco7-469">
          <mxGeometry x="2410" y="955" width="240" height="50" as="geometry" />
        </mxCell>
        <mxCell id="QxGWYKzPWFhETCY1hco7-316" value="&lt;font style=&quot;font-size: 14px;&quot;&gt;Definida por&lt;/font&gt;" style="edgeStyle=orthogonalEdgeStyle;curved=1;rounded=0;orthogonalLoop=1;jettySize=auto;html=1;strokeColor=default;align=center;verticalAlign=middle;fontFamily=Helvetica;fontSize=11;fontColor=default;labelBackgroundColor=default;endArrow=classic;entryX=0;entryY=0.5;entryDx=0;entryDy=0;exitX=1;exitY=0.75;exitDx=0;exitDy=0;" edge="1" target="QxGWYKzPWFhETCY1hco7-317" parent="QxGWYKzPWFhETCY1hco7-469" source="QxGWYKzPWFhETCY1hco7-306">
          <mxGeometry relative="1" as="geometry">
            <mxPoint x="2400" y="1135" as="targetPoint" />
            <mxPoint x="2300" y="1140" as="sourcePoint" />
          </mxGeometry>
        </mxCell>
        <mxCell id="QxGWYKzPWFhETCY1hco7-317" value="&lt;font style=&quot;font-size: 14px;&quot;&gt;pressão devido a velocidade de um fluido em movimento, que ocorre no sentido da corrente do fluido.&lt;br&gt;&lt;/font&gt;" style="rounded=1;whiteSpace=wrap;html=1;" vertex="1" parent="QxGWYKzPWFhETCY1hco7-469">
          <mxGeometry x="2410" y="1115" width="240" height="50" as="geometry" />
        </mxCell>
        <mxCell id="QxGWYKzPWFhETCY1hco7-318" value="&lt;font style=&quot;font-size: 16px;&quot;&gt;Pressão Total&lt;/font&gt;" style="whiteSpace=wrap;html=1;fontSize=11;rounded=1;labelBackgroundColor=default;" vertex="1" parent="QxGWYKzPWFhETCY1hco7-469">
          <mxGeometry x="2440" y="1025" width="120" height="60" as="geometry" />
        </mxCell>
        <mxCell id="QxGWYKzPWFhETCY1hco7-321" value="&lt;font style=&quot;font-size: 14px;&quot;&gt;Definida por&lt;/font&gt;" style="edgeStyle=orthogonalEdgeStyle;curved=1;rounded=0;orthogonalLoop=1;jettySize=auto;html=1;exitX=1;exitY=0.5;exitDx=0;exitDy=0;strokeColor=default;align=center;verticalAlign=middle;fontFamily=Helvetica;fontSize=11;fontColor=default;labelBackgroundColor=default;endArrow=classic;entryX=0;entryY=0.5;entryDx=0;entryDy=0;" edge="1" source="QxGWYKzPWFhETCY1hco7-322" target="QxGWYKzPWFhETCY1hco7-323" parent="QxGWYKzPWFhETCY1hco7-469">
          <mxGeometry relative="1" as="geometry">
            <mxPoint x="2400" y="825" as="targetPoint" />
          </mxGeometry>
        </mxCell>
        <mxCell id="QxGWYKzPWFhETCY1hco7-325" value="&lt;font style=&quot;font-size: 14px;&quot;&gt;Com fórmula&lt;/font&gt;" style="edgeStyle=orthogonalEdgeStyle;curved=1;rounded=0;orthogonalLoop=1;jettySize=auto;html=1;exitX=1;exitY=0.75;exitDx=0;exitDy=0;strokeColor=default;align=center;verticalAlign=middle;fontFamily=Helvetica;fontSize=11;fontColor=default;labelBackgroundColor=default;endArrow=classic;entryX=0;entryY=0.5;entryDx=0;entryDy=0;" edge="1" parent="QxGWYKzPWFhETCY1hco7-469" source="QxGWYKzPWFhETCY1hco7-322" target="QxGWYKzPWFhETCY1hco7-327">
          <mxGeometry relative="1" as="geometry">
            <mxPoint x="2400" y="860.1428571428573" as="targetPoint" />
            <mxPoint as="offset" />
          </mxGeometry>
        </mxCell>
        <mxCell id="QxGWYKzPWFhETCY1hco7-322" value="&lt;font style=&quot;font-size: 16px;&quot;&gt;Lei da Continuidade&lt;/font&gt;" style="whiteSpace=wrap;html=1;fontSize=11;rounded=1;labelBackgroundColor=default;" vertex="1" parent="QxGWYKzPWFhETCY1hco7-469">
          <mxGeometry x="2180" y="815" width="120" height="60" as="geometry" />
        </mxCell>
        <mxCell id="QxGWYKzPWFhETCY1hco7-323" value="&lt;font style=&quot;font-size: 14px;&quot;&gt;o produto da velocidade média (v), área da seção transversal do tubo (A) e densidade do fluido (ρ) para um determinado fluxo deve ermanecer constante&lt;/font&gt;" style="rounded=1;whiteSpace=wrap;html=1;" vertex="1" parent="QxGWYKzPWFhETCY1hco7-469">
          <mxGeometry x="2410" y="815" width="370" height="50" as="geometry" />
        </mxCell>
        <mxCell id="QxGWYKzPWFhETCY1hco7-327" value="&lt;font style=&quot;font-size: 14px;&quot;&gt;ρ*A1*v1 =ρ*A2*v2&lt;/font&gt;" style="rounded=1;whiteSpace=wrap;html=1;" vertex="1" parent="QxGWYKzPWFhETCY1hco7-469">
          <mxGeometry x="2410" y="885" width="120" height="50" as="geometry" />
        </mxCell>
        <mxCell id="QxGWYKzPWFhETCY1hco7-329" value="&lt;span style=&quot;font-size: 14px; text-wrap: wrap; background-color: rgb(251, 251, 251);&quot;&gt;A força mecânica desenvolvida em um&lt;/span&gt;" style="edgeStyle=orthogonalEdgeStyle;curved=1;rounded=0;orthogonalLoop=1;jettySize=auto;html=1;exitX=1;exitY=0.5;exitDx=0;exitDy=0;strokeColor=default;align=center;verticalAlign=middle;fontFamily=Helvetica;fontSize=11;fontColor=default;labelBackgroundColor=default;endArrow=classic;entryX=0;entryY=0.5;entryDx=0;entryDy=0;" edge="1" source="QxGWYKzPWFhETCY1hco7-331" target="QxGWYKzPWFhETCY1hco7-346" parent="QxGWYKzPWFhETCY1hco7-469">
          <mxGeometry relative="1" as="geometry">
            <mxPoint x="2400" y="695" as="targetPoint" />
          </mxGeometry>
        </mxCell>
        <mxCell id="QxGWYKzPWFhETCY1hco7-330" value="&lt;font style=&quot;font-size: 14px;&quot;&gt;Com fórmula&lt;/font&gt;" style="edgeStyle=orthogonalEdgeStyle;curved=1;rounded=0;orthogonalLoop=1;jettySize=auto;html=1;exitX=1;exitY=0.75;exitDx=0;exitDy=0;strokeColor=default;align=center;verticalAlign=middle;fontFamily=Helvetica;fontSize=11;fontColor=default;labelBackgroundColor=default;endArrow=classic;entryX=0;entryY=0.5;entryDx=0;entryDy=0;" edge="1" source="QxGWYKzPWFhETCY1hco7-331" target="QxGWYKzPWFhETCY1hco7-333" parent="QxGWYKzPWFhETCY1hco7-469">
          <mxGeometry relative="1" as="geometry">
            <mxPoint x="2400" y="730.1428571428573" as="targetPoint" />
            <mxPoint as="offset" />
          </mxGeometry>
        </mxCell>
        <mxCell id="QxGWYKzPWFhETCY1hco7-331" value="&lt;font style=&quot;font-size: 16px;&quot;&gt;Teorema de Pascal&lt;/font&gt;" style="whiteSpace=wrap;html=1;fontSize=11;rounded=1;labelBackgroundColor=default;" vertex="1" parent="QxGWYKzPWFhETCY1hco7-469">
          <mxGeometry x="2180" y="685" width="120" height="60" as="geometry" />
        </mxCell>
        <mxCell id="QxGWYKzPWFhETCY1hco7-340" value="&lt;font style=&quot;font-size: 14px;&quot;&gt;Pode ser&lt;/font&gt;" style="edgeStyle=orthogonalEdgeStyle;curved=1;rounded=0;orthogonalLoop=1;jettySize=auto;html=1;exitX=1;exitY=0.5;exitDx=0;exitDy=0;entryX=0;entryY=0.5;entryDx=0;entryDy=0;strokeColor=default;align=center;verticalAlign=middle;fontFamily=Helvetica;fontSize=11;fontColor=default;labelBackgroundColor=default;endArrow=classic;" edge="1" parent="QxGWYKzPWFhETCY1hco7-469" source="QxGWYKzPWFhETCY1hco7-346" target="QxGWYKzPWFhETCY1hco7-339">
          <mxGeometry relative="1" as="geometry" />
        </mxCell>
        <mxCell id="QxGWYKzPWFhETCY1hco7-343" value="&lt;font style=&quot;font-size: 14px;&quot;&gt;Hidráulico&lt;/font&gt;" style="edgeStyle=orthogonalEdgeStyle;curved=1;rounded=0;orthogonalLoop=1;jettySize=auto;html=1;exitX=1;exitY=0.5;exitDx=0;exitDy=0;entryX=0;entryY=0.5;entryDx=0;entryDy=0;strokeColor=default;align=center;verticalAlign=middle;fontFamily=Helvetica;fontSize=11;fontColor=default;labelBackgroundColor=default;endArrow=classic;" edge="1" parent="QxGWYKzPWFhETCY1hco7-469" source="QxGWYKzPWFhETCY1hco7-332" target="QxGWYKzPWFhETCY1hco7-341">
          <mxGeometry x="0.25" y="5" relative="1" as="geometry">
            <mxPoint as="offset" />
          </mxGeometry>
        </mxCell>
        <mxCell id="QxGWYKzPWFhETCY1hco7-344" value="&lt;font style=&quot;font-size: 14px;&quot;&gt;Pneumático&lt;/font&gt;" style="edgeStyle=orthogonalEdgeStyle;curved=1;rounded=0;orthogonalLoop=1;jettySize=auto;html=1;exitX=1;exitY=0.5;exitDx=0;exitDy=0;strokeColor=default;align=center;verticalAlign=middle;fontFamily=Helvetica;fontSize=11;fontColor=default;labelBackgroundColor=default;endArrow=classic;entryX=0;entryY=0.5;entryDx=0;entryDy=0;" edge="1" parent="QxGWYKzPWFhETCY1hco7-469" source="QxGWYKzPWFhETCY1hco7-332" target="QxGWYKzPWFhETCY1hco7-342">
          <mxGeometry x="0.026" relative="1" as="geometry">
            <mxPoint x="2700" y="660" as="targetPoint" />
            <Array as="points">
              <mxPoint x="2705" y="576" />
              <mxPoint x="2705" y="660" />
            </Array>
            <mxPoint as="offset" />
          </mxGeometry>
        </mxCell>
        <mxCell id="QxGWYKzPWFhETCY1hco7-332" value="&lt;font style=&quot;font-size: 16px;&quot;&gt;Fluido&lt;/font&gt;" style="rounded=1;whiteSpace=wrap;html=1;" vertex="1" parent="QxGWYKzPWFhETCY1hco7-469">
          <mxGeometry x="2600" y="551" width="70" height="50" as="geometry" />
        </mxCell>
        <mxCell id="QxGWYKzPWFhETCY1hco7-333" value="&lt;font style=&quot;font-size: 14px;&quot;&gt;ρ*A1*v1 =ρ*A2*v2&lt;/font&gt;" style="rounded=1;whiteSpace=wrap;html=1;" vertex="1" parent="QxGWYKzPWFhETCY1hco7-469">
          <mxGeometry x="2410" y="755" width="120" height="50" as="geometry" />
        </mxCell>
        <mxCell id="QxGWYKzPWFhETCY1hco7-339" value="&lt;font style=&quot;font-size: 14px;&quot;&gt;Transmitida, Multiplicada ou Controlada&lt;/font&gt;" style="rounded=1;whiteSpace=wrap;html=1;" vertex="1" parent="QxGWYKzPWFhETCY1hco7-469">
          <mxGeometry x="2570" y="695" width="120" height="50" as="geometry" />
        </mxCell>
        <mxCell id="QxGWYKzPWFhETCY1hco7-341" value="&lt;span style=&quot;font-size: 14px;&quot;&gt;Líquido, geralmente óleo&lt;/span&gt;" style="rounded=1;whiteSpace=wrap;html=1;" vertex="1" parent="QxGWYKzPWFhETCY1hco7-469">
          <mxGeometry x="2740" y="475" width="120" height="50" as="geometry" />
        </mxCell>
        <mxCell id="QxGWYKzPWFhETCY1hco7-342" value="&lt;span style=&quot;font-size: 14px;&quot;&gt;Gás, geralmente ar&lt;/span&gt;" style="rounded=1;whiteSpace=wrap;html=1;" vertex="1" parent="QxGWYKzPWFhETCY1hco7-469">
          <mxGeometry x="2740" y="635" width="120" height="50" as="geometry" />
        </mxCell>
        <mxCell id="QxGWYKzPWFhETCY1hco7-347" value="&lt;font style=&quot;font-size: 14px;&quot;&gt;Desenvolvida em&lt;/font&gt;" style="edgeStyle=orthogonalEdgeStyle;curved=1;rounded=0;orthogonalLoop=1;jettySize=auto;html=1;exitX=1;exitY=0.5;exitDx=0;exitDy=0;entryX=0;entryY=0.5;entryDx=0;entryDy=0;strokeColor=default;align=center;verticalAlign=middle;fontFamily=Helvetica;fontSize=11;fontColor=default;labelBackgroundColor=default;endArrow=classic;" edge="1" parent="QxGWYKzPWFhETCY1hco7-469" source="QxGWYKzPWFhETCY1hco7-346" target="QxGWYKzPWFhETCY1hco7-332">
          <mxGeometry relative="1" as="geometry" />
        </mxCell>
        <mxCell id="QxGWYKzPWFhETCY1hco7-346" value="&lt;font style=&quot;font-size: 16px;&quot;&gt;Força Mecânica&lt;/font&gt;" style="rounded=1;whiteSpace=wrap;html=1;" vertex="1" parent="QxGWYKzPWFhETCY1hco7-469">
          <mxGeometry x="2410" y="640" width="80" height="50" as="geometry" />
        </mxCell>
        <mxCell id="QxGWYKzPWFhETCY1hco7-351" value="" style="endArrow=none;html=1;rounded=0;strokeColor=default;align=center;verticalAlign=middle;fontFamily=Helvetica;fontSize=11;fontColor=default;labelBackgroundColor=default;edgeStyle=orthogonalEdgeStyle;curved=1;entryX=0;entryY=0.5;entryDx=0;entryDy=0;" edge="1" parent="QxGWYKzPWFhETCY1hco7-469" target="QxGWYKzPWFhETCY1hco7-259">
          <mxGeometry width="50" height="50" relative="1" as="geometry">
            <mxPoint x="1320" y="520" as="sourcePoint" />
            <mxPoint x="1350" y="520" as="targetPoint" />
          </mxGeometry>
        </mxCell>
        <mxCell id="QxGWYKzPWFhETCY1hco7-352" value="&lt;font style=&quot;font-size: 14px;&quot;&gt;Técnicas de Medição&lt;/font&gt;" style="edgeLabel;html=1;align=center;verticalAlign=middle;resizable=0;points=[];fontFamily=Helvetica;fontSize=11;fontColor=default;labelBackgroundColor=default;" vertex="1" connectable="0" parent="QxGWYKzPWFhETCY1hco7-351">
          <mxGeometry x="0.4883" y="-1" relative="1" as="geometry">
            <mxPoint x="-33" y="-1" as="offset" />
          </mxGeometry>
        </mxCell>
        <mxCell id="QxGWYKzPWFhETCY1hco7-353" value="" style="curved=1;endArrow=classic;html=1;rounded=0;strokeColor=default;align=center;verticalAlign=middle;fontFamily=Helvetica;fontSize=11;fontColor=default;labelBackgroundColor=default;edgeStyle=orthogonalEdgeStyle;entryX=1;entryY=0.5;entryDx=0;entryDy=0;" edge="1" parent="QxGWYKzPWFhETCY1hco7-469" target="QxGWYKzPWFhETCY1hco7-354">
          <mxGeometry width="50" height="50" relative="1" as="geometry">
            <mxPoint x="1320" y="520" as="sourcePoint" />
            <mxPoint x="1210" y="339" as="targetPoint" />
            <Array as="points">
              <mxPoint x="1300" y="520" />
              <mxPoint x="1300" y="339" />
            </Array>
          </mxGeometry>
        </mxCell>
        <mxCell id="QxGWYKzPWFhETCY1hco7-356" value="&lt;font style=&quot;font-size: 14px;&quot;&gt;para medição&lt;/font&gt;&lt;div&gt;&lt;font style=&quot;font-size: 14px;&quot;&gt;direta usamos&lt;/font&gt;&lt;/div&gt;" style="edgeStyle=orthogonalEdgeStyle;curved=1;rounded=0;orthogonalLoop=1;jettySize=auto;html=1;strokeColor=default;align=center;verticalAlign=middle;fontFamily=Helvetica;fontSize=11;fontColor=default;labelBackgroundColor=default;endArrow=classic;entryX=1;entryY=0.5;entryDx=0;entryDy=0;exitX=0;exitY=0.5;exitDx=0;exitDy=0;" edge="1" parent="QxGWYKzPWFhETCY1hco7-469" source="QxGWYKzPWFhETCY1hco7-354" target="QxGWYKzPWFhETCY1hco7-357">
          <mxGeometry y="-20" relative="1" as="geometry">
            <mxPoint x="900" y="409" as="targetPoint" />
            <mxPoint x="1090" y="409" as="sourcePoint" />
            <mxPoint as="offset" />
          </mxGeometry>
        </mxCell>
        <mxCell id="QxGWYKzPWFhETCY1hco7-377" value="&lt;font style=&quot;font-size: 14px;&quot;&gt;para medição&lt;/font&gt;&lt;div style=&quot;font-size: 14px;&quot;&gt;&lt;font style=&quot;font-size: 14px;&quot;&gt;indireta usamos&lt;/font&gt;&lt;/div&gt;" style="edgeStyle=orthogonalEdgeStyle;curved=1;rounded=0;orthogonalLoop=1;jettySize=auto;html=1;exitX=0;exitY=0.5;exitDx=0;exitDy=0;entryX=1;entryY=0.5;entryDx=0;entryDy=0;strokeColor=default;align=center;verticalAlign=middle;fontFamily=Helvetica;fontSize=11;fontColor=default;labelBackgroundColor=default;endArrow=classic;" edge="1" parent="QxGWYKzPWFhETCY1hco7-469" source="QxGWYKzPWFhETCY1hco7-354" target="QxGWYKzPWFhETCY1hco7-376">
          <mxGeometry relative="1" as="geometry" />
        </mxCell>
        <mxCell id="QxGWYKzPWFhETCY1hco7-354" value="&lt;font size=&quot;1&quot; style=&quot;&quot;&gt;&lt;b style=&quot;font-size: 16px;&quot;&gt;Dispositivos Mecânicos&lt;/b&gt;&lt;/font&gt;" style="rounded=1;whiteSpace=wrap;html=1;fontFamily=Helvetica;fontSize=11;fontColor=default;labelBackgroundColor=default;" vertex="1" parent="QxGWYKzPWFhETCY1hco7-469">
          <mxGeometry x="1090" y="309" width="120" height="60" as="geometry" />
        </mxCell>
        <mxCell id="QxGWYKzPWFhETCY1hco7-359" style="edgeStyle=orthogonalEdgeStyle;curved=1;rounded=0;orthogonalLoop=1;jettySize=auto;html=1;exitX=0;exitY=0.5;exitDx=0;exitDy=0;entryX=1;entryY=0.5;entryDx=0;entryDy=0;strokeColor=default;align=center;verticalAlign=middle;fontFamily=Helvetica;fontSize=11;fontColor=default;labelBackgroundColor=default;endArrow=classic;" edge="1" parent="QxGWYKzPWFhETCY1hco7-469" source="QxGWYKzPWFhETCY1hco7-357" target="QxGWYKzPWFhETCY1hco7-358">
          <mxGeometry relative="1" as="geometry" />
        </mxCell>
        <mxCell id="QxGWYKzPWFhETCY1hco7-361" style="edgeStyle=orthogonalEdgeStyle;curved=1;rounded=0;orthogonalLoop=1;jettySize=auto;html=1;exitX=0;exitY=0.5;exitDx=0;exitDy=0;entryX=1;entryY=0.5;entryDx=0;entryDy=0;strokeColor=default;align=center;verticalAlign=middle;fontFamily=Helvetica;fontSize=11;fontColor=default;labelBackgroundColor=default;endArrow=classic;" edge="1" parent="QxGWYKzPWFhETCY1hco7-469" source="QxGWYKzPWFhETCY1hco7-372" target="QxGWYKzPWFhETCY1hco7-360">
          <mxGeometry relative="1" as="geometry" />
        </mxCell>
        <mxCell id="QxGWYKzPWFhETCY1hco7-363" style="edgeStyle=orthogonalEdgeStyle;curved=1;rounded=0;orthogonalLoop=1;jettySize=auto;html=1;exitX=0;exitY=0.5;exitDx=0;exitDy=0;entryX=1;entryY=0.5;entryDx=0;entryDy=0;strokeColor=default;align=center;verticalAlign=middle;fontFamily=Helvetica;fontSize=11;fontColor=default;labelBackgroundColor=default;endArrow=classic;" edge="1" parent="QxGWYKzPWFhETCY1hco7-469" source="QxGWYKzPWFhETCY1hco7-372" target="QxGWYKzPWFhETCY1hco7-362">
          <mxGeometry relative="1" as="geometry" />
        </mxCell>
        <mxCell id="QxGWYKzPWFhETCY1hco7-373" style="edgeStyle=orthogonalEdgeStyle;curved=1;rounded=0;orthogonalLoop=1;jettySize=auto;html=1;exitX=0;exitY=0.5;exitDx=0;exitDy=0;entryX=1;entryY=0.5;entryDx=0;entryDy=0;strokeColor=default;align=center;verticalAlign=middle;fontFamily=Helvetica;fontSize=11;fontColor=default;labelBackgroundColor=default;endArrow=classic;" edge="1" parent="QxGWYKzPWFhETCY1hco7-469" source="QxGWYKzPWFhETCY1hco7-357" target="QxGWYKzPWFhETCY1hco7-372">
          <mxGeometry relative="1" as="geometry" />
        </mxCell>
        <mxCell id="QxGWYKzPWFhETCY1hco7-357" value="&lt;font size=&quot;1&quot; style=&quot;&quot;&gt;&lt;b style=&quot;font-size: 16px;&quot;&gt;Manômetros&lt;/b&gt;&lt;/font&gt;" style="rounded=1;whiteSpace=wrap;html=1;fontFamily=Helvetica;fontSize=11;fontColor=default;labelBackgroundColor=default;" vertex="1" parent="QxGWYKzPWFhETCY1hco7-469">
          <mxGeometry x="850" y="179" width="120" height="60" as="geometry" />
        </mxCell>
        <mxCell id="QxGWYKzPWFhETCY1hco7-358" value="&lt;font size=&quot;1&quot; style=&quot;&quot;&gt;&lt;b style=&quot;font-size: 16px;&quot;&gt;Tubo em U&lt;/b&gt;&lt;/font&gt;" style="rounded=1;whiteSpace=wrap;html=1;fontFamily=Helvetica;fontSize=11;fontColor=default;labelBackgroundColor=default;" vertex="1" parent="QxGWYKzPWFhETCY1hco7-469">
          <mxGeometry x="580" y="99" width="120" height="60" as="geometry" />
        </mxCell>
        <mxCell id="QxGWYKzPWFhETCY1hco7-368" value="funciona por" style="edgeStyle=orthogonalEdgeStyle;curved=1;rounded=0;orthogonalLoop=1;jettySize=auto;html=1;exitX=0;exitY=0.5;exitDx=0;exitDy=0;entryX=1;entryY=0.5;entryDx=0;entryDy=0;strokeColor=default;align=center;verticalAlign=middle;fontFamily=Helvetica;fontSize=11;fontColor=default;labelBackgroundColor=default;endArrow=classic;" edge="1" parent="QxGWYKzPWFhETCY1hco7-469" source="QxGWYKzPWFhETCY1hco7-372" target="QxGWYKzPWFhETCY1hco7-367">
          <mxGeometry relative="1" as="geometry" />
        </mxCell>
        <mxCell id="QxGWYKzPWFhETCY1hco7-360" value="&lt;font size=&quot;1&quot; style=&quot;&quot;&gt;&lt;b style=&quot;font-size: 16px;&quot;&gt;Inclinada&lt;/b&gt;&lt;/font&gt;" style="rounded=1;whiteSpace=wrap;html=1;fontFamily=Helvetica;fontSize=11;fontColor=default;labelBackgroundColor=default;" vertex="1" parent="QxGWYKzPWFhETCY1hco7-469">
          <mxGeometry x="430" y="179" width="120" height="60" as="geometry" />
        </mxCell>
        <mxCell id="QxGWYKzPWFhETCY1hco7-362" value="&lt;span style=&quot;font-size: 16px;&quot;&gt;&lt;b&gt;Reta&lt;/b&gt;&lt;/span&gt;" style="rounded=1;whiteSpace=wrap;html=1;fontFamily=Helvetica;fontSize=11;fontColor=default;labelBackgroundColor=default;" vertex="1" parent="QxGWYKzPWFhETCY1hco7-469">
          <mxGeometry x="430" y="249" width="120" height="60" as="geometry" />
        </mxCell>
        <mxCell id="QxGWYKzPWFhETCY1hco7-365" value="funciona por" style="edgeStyle=orthogonalEdgeStyle;curved=1;rounded=0;orthogonalLoop=1;jettySize=auto;html=1;exitX=0;exitY=0.5;exitDx=0;exitDy=0;entryX=1;entryY=0.5;entryDx=0;entryDy=0;strokeColor=default;align=center;verticalAlign=middle;fontFamily=Helvetica;fontSize=11;fontColor=default;labelBackgroundColor=default;resizable=0;endArrow=classic;" edge="1" parent="QxGWYKzPWFhETCY1hco7-469" target="QxGWYKzPWFhETCY1hco7-366" source="QxGWYKzPWFhETCY1hco7-358">
          <mxGeometry y="-10" relative="1" as="geometry">
            <mxPoint as="offset" />
            <mxPoint x="540" y="98.5" as="sourcePoint" />
          </mxGeometry>
        </mxCell>
        <mxCell id="QxGWYKzPWFhETCY1hco7-366" value="A pressão a ser medida é aplicada a uma das aberturas do tubo, enquanto uma pressão de referência é aplicada à outra abertura" style="rounded=1;whiteSpace=wrap;html=1;" vertex="1" parent="QxGWYKzPWFhETCY1hco7-469">
          <mxGeometry x="230" y="99" width="250" height="60" as="geometry" />
        </mxCell>
        <mxCell id="QxGWYKzPWFhETCY1hco7-367" value="Manômetro de tubo em U com diâmetros diferentes. Para efeito prático, o nível do líquido no tanque é constante, e o líquido no tubo de indicação se desloca proporcionalmente à pressão aplicada. Assim, apenas a altura de uma única coluna é suficiente para ler a pressão." style="rounded=1;whiteSpace=wrap;html=1;" vertex="1" parent="QxGWYKzPWFhETCY1hco7-469">
          <mxGeometry x="60" y="329" width="500" height="60" as="geometry" />
        </mxCell>
        <mxCell id="QxGWYKzPWFhETCY1hco7-372" value="&lt;font size=&quot;1&quot; style=&quot;&quot;&gt;&lt;b style=&quot;font-size: 16px;&quot;&gt;Coluna&lt;/b&gt;&lt;/font&gt;" style="rounded=1;whiteSpace=wrap;html=1;fontFamily=Helvetica;fontSize=11;fontColor=default;labelBackgroundColor=default;" vertex="1" parent="QxGWYKzPWFhETCY1hco7-469">
          <mxGeometry x="660" y="219" width="120" height="60" as="geometry" />
        </mxCell>
        <mxCell id="QxGWYKzPWFhETCY1hco7-382" style="edgeStyle=orthogonalEdgeStyle;curved=1;rounded=0;orthogonalLoop=1;jettySize=auto;html=1;exitX=0;exitY=0.5;exitDx=0;exitDy=0;entryX=1;entryY=0.5;entryDx=0;entryDy=0;strokeColor=default;align=center;verticalAlign=middle;fontFamily=Helvetica;fontSize=11;fontColor=default;labelBackgroundColor=default;endArrow=classic;" edge="1" parent="QxGWYKzPWFhETCY1hco7-469" source="QxGWYKzPWFhETCY1hco7-376" target="QxGWYKzPWFhETCY1hco7-381">
          <mxGeometry relative="1" as="geometry" />
        </mxCell>
        <mxCell id="QxGWYKzPWFhETCY1hco7-394" style="edgeStyle=orthogonalEdgeStyle;curved=1;rounded=0;orthogonalLoop=1;jettySize=auto;html=1;exitX=0;exitY=0.5;exitDx=0;exitDy=0;entryX=1;entryY=0.5;entryDx=0;entryDy=0;strokeColor=default;align=center;verticalAlign=middle;fontFamily=Helvetica;fontSize=11;fontColor=default;labelBackgroundColor=default;endArrow=classic;" edge="1" parent="QxGWYKzPWFhETCY1hco7-469" source="QxGWYKzPWFhETCY1hco7-376" target="QxGWYKzPWFhETCY1hco7-390">
          <mxGeometry relative="1" as="geometry" />
        </mxCell>
        <mxCell id="QxGWYKzPWFhETCY1hco7-400" style="edgeStyle=orthogonalEdgeStyle;curved=1;rounded=0;orthogonalLoop=1;jettySize=auto;html=1;exitX=0;exitY=0.5;exitDx=0;exitDy=0;entryX=1;entryY=0.5;entryDx=0;entryDy=0;strokeColor=default;align=center;verticalAlign=middle;fontFamily=Helvetica;fontSize=11;fontColor=default;labelBackgroundColor=default;endArrow=classic;" edge="1" parent="QxGWYKzPWFhETCY1hco7-469" source="QxGWYKzPWFhETCY1hco7-376" target="QxGWYKzPWFhETCY1hco7-396">
          <mxGeometry relative="1" as="geometry" />
        </mxCell>
        <mxCell id="QxGWYKzPWFhETCY1hco7-376" value="&lt;span style=&quot;font-size: 16px;&quot;&gt;&lt;b&gt;Elásticos de Medição&lt;/b&gt;&lt;/span&gt;" style="rounded=1;whiteSpace=wrap;html=1;fontFamily=Helvetica;fontSize=11;fontColor=default;labelBackgroundColor=default;" vertex="1" parent="QxGWYKzPWFhETCY1hco7-469">
          <mxGeometry x="900" y="494" width="120" height="60" as="geometry" />
        </mxCell>
        <mxCell id="QxGWYKzPWFhETCY1hco7-383" value="Constituídos de" style="edgeStyle=orthogonalEdgeStyle;curved=1;rounded=0;orthogonalLoop=1;jettySize=auto;html=1;exitX=0;exitY=0.5;exitDx=0;exitDy=0;strokeColor=default;align=center;verticalAlign=middle;fontFamily=Helvetica;fontSize=11;fontColor=default;labelBackgroundColor=default;endArrow=classic;entryX=1;entryY=0.5;entryDx=0;entryDy=0;" edge="1" parent="QxGWYKzPWFhETCY1hco7-469" source="QxGWYKzPWFhETCY1hco7-381" target="QxGWYKzPWFhETCY1hco7-385">
          <mxGeometry relative="1" as="geometry">
            <mxPoint x="590" y="429.0000000000002" as="targetPoint" />
          </mxGeometry>
        </mxCell>
        <mxCell id="QxGWYKzPWFhETCY1hco7-381" value="&lt;span style=&quot;font-size: 16px;&quot;&gt;&lt;b&gt;Fole&lt;/b&gt;&lt;/span&gt;" style="rounded=1;whiteSpace=wrap;html=1;fontFamily=Helvetica;fontSize=11;fontColor=default;labelBackgroundColor=default;" vertex="1" parent="QxGWYKzPWFhETCY1hco7-469">
          <mxGeometry x="690" y="430" width="120" height="60" as="geometry" />
        </mxCell>
        <mxCell id="QxGWYKzPWFhETCY1hco7-385" value="cilindro metálico, carrugado ou sanfonado." style="rounded=1;whiteSpace=wrap;html=1;" vertex="1" parent="QxGWYKzPWFhETCY1hco7-469">
          <mxGeometry x="420" y="404" width="170" height="35" as="geometry" />
        </mxCell>
        <mxCell id="QxGWYKzPWFhETCY1hco7-387" value="Um elemento elástico sofre de descolocamento no mesmo sendido da pressão externa." style="rounded=1;whiteSpace=wrap;html=1;" vertex="1" parent="QxGWYKzPWFhETCY1hco7-469">
          <mxGeometry x="420" y="464" width="170" height="60" as="geometry" />
        </mxCell>
        <mxCell id="QxGWYKzPWFhETCY1hco7-388" value="funciona por" style="edgeStyle=orthogonalEdgeStyle;curved=1;rounded=0;orthogonalLoop=1;jettySize=auto;html=1;exitX=0;exitY=0.5;exitDx=0;exitDy=0;entryX=1;entryY=0.5;entryDx=0;entryDy=0;strokeColor=default;align=center;verticalAlign=middle;fontFamily=Helvetica;fontSize=11;fontColor=default;labelBackgroundColor=default;endArrow=classic;" edge="1" target="QxGWYKzPWFhETCY1hco7-387" parent="QxGWYKzPWFhETCY1hco7-469" source="QxGWYKzPWFhETCY1hco7-381">
          <mxGeometry relative="1" as="geometry">
            <mxPoint x="690" y="464" as="sourcePoint" />
          </mxGeometry>
        </mxCell>
        <mxCell id="QxGWYKzPWFhETCY1hco7-389" value="Constituídos de" style="edgeStyle=orthogonalEdgeStyle;curved=1;rounded=0;orthogonalLoop=1;jettySize=auto;html=1;exitX=0;exitY=0.5;exitDx=0;exitDy=0;strokeColor=default;align=center;verticalAlign=middle;fontFamily=Helvetica;fontSize=11;fontColor=default;labelBackgroundColor=default;endArrow=classic;entryX=1;entryY=0.5;entryDx=0;entryDy=0;" edge="1" source="QxGWYKzPWFhETCY1hco7-390" target="QxGWYKzPWFhETCY1hco7-391" parent="QxGWYKzPWFhETCY1hco7-469">
          <mxGeometry relative="1" as="geometry">
            <mxPoint x="590" y="564.0000000000002" as="targetPoint" />
          </mxGeometry>
        </mxCell>
        <mxCell id="QxGWYKzPWFhETCY1hco7-390" value="&lt;span style=&quot;font-size: 16px;&quot;&gt;&lt;b&gt;Diafragma&lt;/b&gt;&lt;/span&gt;" style="rounded=1;whiteSpace=wrap;html=1;fontFamily=Helvetica;fontSize=11;fontColor=default;labelBackgroundColor=default;" vertex="1" parent="QxGWYKzPWFhETCY1hco7-469">
          <mxGeometry x="690" y="565" width="120" height="60" as="geometry" />
        </mxCell>
        <mxCell id="QxGWYKzPWFhETCY1hco7-391" value="membranas elásticas" style="rounded=1;whiteSpace=wrap;html=1;" vertex="1" parent="QxGWYKzPWFhETCY1hco7-469">
          <mxGeometry x="500" y="539" width="90" height="35" as="geometry" />
        </mxCell>
        <mxCell id="QxGWYKzPWFhETCY1hco7-392" value="Sofrem deformação pela ação da diferença de pressão entre dois pontos quaisquer ou entre a pressão a ser medida e a pressão atmosférica local." style="rounded=1;whiteSpace=wrap;html=1;" vertex="1" parent="QxGWYKzPWFhETCY1hco7-469">
          <mxGeometry x="300" y="599" width="290" height="60" as="geometry" />
        </mxCell>
        <mxCell id="QxGWYKzPWFhETCY1hco7-393" value="funciona por" style="edgeStyle=orthogonalEdgeStyle;curved=1;rounded=0;orthogonalLoop=1;jettySize=auto;html=1;exitX=0;exitY=0.5;exitDx=0;exitDy=0;entryX=1;entryY=0.5;entryDx=0;entryDy=0;strokeColor=default;align=center;verticalAlign=middle;fontFamily=Helvetica;fontSize=11;fontColor=default;labelBackgroundColor=default;endArrow=classic;" edge="1" source="QxGWYKzPWFhETCY1hco7-390" target="QxGWYKzPWFhETCY1hco7-392" parent="QxGWYKzPWFhETCY1hco7-469">
          <mxGeometry relative="1" as="geometry">
            <mxPoint x="690" y="599" as="sourcePoint" />
          </mxGeometry>
        </mxCell>
        <mxCell id="QxGWYKzPWFhETCY1hco7-396" value="&lt;span style=&quot;font-size: 16px;&quot;&gt;&lt;b&gt;Tubo de Bourdon&lt;/b&gt;&lt;/span&gt;" style="rounded=1;whiteSpace=wrap;html=1;fontFamily=Helvetica;fontSize=11;fontColor=default;labelBackgroundColor=default;" vertex="1" parent="QxGWYKzPWFhETCY1hco7-469">
          <mxGeometry x="690" y="705" width="120" height="60" as="geometry" />
        </mxCell>
        <mxCell id="QxGWYKzPWFhETCY1hco7-398" value="A pressão atuando no interior do Bourdon produz uma deformação que é amplificada, mecanicamente, e transformada em movimento angular de um ponteiro associado a uma escala." style="rounded=1;whiteSpace=wrap;html=1;" vertex="1" parent="QxGWYKzPWFhETCY1hco7-469">
          <mxGeometry x="240" y="705" width="350" height="60" as="geometry" />
        </mxCell>
        <mxCell id="QxGWYKzPWFhETCY1hco7-399" value="funciona por" style="edgeStyle=orthogonalEdgeStyle;curved=1;rounded=0;orthogonalLoop=1;jettySize=auto;html=1;exitX=0;exitY=0.5;exitDx=0;exitDy=0;entryX=1;entryY=0.5;entryDx=0;entryDy=0;strokeColor=default;align=center;verticalAlign=middle;fontFamily=Helvetica;fontSize=11;fontColor=default;labelBackgroundColor=default;endArrow=classic;" edge="1" source="QxGWYKzPWFhETCY1hco7-396" target="QxGWYKzPWFhETCY1hco7-398" parent="QxGWYKzPWFhETCY1hco7-469">
          <mxGeometry relative="1" as="geometry">
            <mxPoint x="700" y="739" as="sourcePoint" />
          </mxGeometry>
        </mxCell>
        <mxCell id="QxGWYKzPWFhETCY1hco7-403" style="edgeStyle=orthogonalEdgeStyle;curved=1;rounded=0;orthogonalLoop=1;jettySize=auto;html=1;exitX=0;exitY=0.5;exitDx=0;exitDy=0;entryX=1;entryY=0.5;entryDx=0;entryDy=0;strokeColor=default;align=center;verticalAlign=middle;fontFamily=Helvetica;fontSize=11;fontColor=default;labelBackgroundColor=default;endArrow=classic;" edge="1" parent="QxGWYKzPWFhETCY1hco7-469" source="QxGWYKzPWFhETCY1hco7-401" target="QxGWYKzPWFhETCY1hco7-402">
          <mxGeometry relative="1" as="geometry" />
        </mxCell>
        <mxCell id="QxGWYKzPWFhETCY1hco7-459" style="edgeStyle=orthogonalEdgeStyle;curved=1;rounded=0;orthogonalLoop=1;jettySize=auto;html=1;exitX=0;exitY=0.5;exitDx=0;exitDy=0;entryX=1;entryY=0.5;entryDx=0;entryDy=0;strokeColor=default;align=center;verticalAlign=middle;fontFamily=Helvetica;fontSize=11;fontColor=default;labelBackgroundColor=default;endArrow=classic;" edge="1" parent="QxGWYKzPWFhETCY1hco7-469" source="QxGWYKzPWFhETCY1hco7-401" target="QxGWYKzPWFhETCY1hco7-413">
          <mxGeometry relative="1" as="geometry" />
        </mxCell>
        <mxCell id="QxGWYKzPWFhETCY1hco7-460" style="edgeStyle=orthogonalEdgeStyle;curved=1;rounded=0;orthogonalLoop=1;jettySize=auto;html=1;exitX=0;exitY=0.5;exitDx=0;exitDy=0;entryX=1;entryY=0.5;entryDx=0;entryDy=0;strokeColor=default;align=center;verticalAlign=middle;fontFamily=Helvetica;fontSize=11;fontColor=default;labelBackgroundColor=default;endArrow=classic;" edge="1" parent="QxGWYKzPWFhETCY1hco7-469" source="QxGWYKzPWFhETCY1hco7-401" target="QxGWYKzPWFhETCY1hco7-420">
          <mxGeometry relative="1" as="geometry" />
        </mxCell>
        <mxCell id="QxGWYKzPWFhETCY1hco7-461" style="edgeStyle=orthogonalEdgeStyle;curved=1;rounded=0;orthogonalLoop=1;jettySize=auto;html=1;exitX=0;exitY=0.5;exitDx=0;exitDy=0;entryX=1;entryY=0.5;entryDx=0;entryDy=0;strokeColor=default;align=center;verticalAlign=middle;fontFamily=Helvetica;fontSize=11;fontColor=default;labelBackgroundColor=default;endArrow=classic;" edge="1" parent="QxGWYKzPWFhETCY1hco7-469" source="QxGWYKzPWFhETCY1hco7-401" target="QxGWYKzPWFhETCY1hco7-427">
          <mxGeometry relative="1" as="geometry" />
        </mxCell>
        <mxCell id="QxGWYKzPWFhETCY1hco7-401" value="&lt;font size=&quot;1&quot; style=&quot;&quot;&gt;&lt;b style=&quot;font-size: 16px;&quot;&gt;Sensores&lt;/b&gt;&lt;/font&gt;" style="rounded=1;whiteSpace=wrap;html=1;fontFamily=Helvetica;fontSize=11;fontColor=default;labelBackgroundColor=default;" vertex="1" parent="QxGWYKzPWFhETCY1hco7-469">
          <mxGeometry x="1090" y="1075" width="120" height="60" as="geometry" />
        </mxCell>
        <mxCell id="QxGWYKzPWFhETCY1hco7-406" value="" style="edgeStyle=orthogonalEdgeStyle;curved=1;rounded=0;orthogonalLoop=1;jettySize=auto;html=1;exitX=0;exitY=0.25;exitDx=0;exitDy=0;entryX=1;entryY=0.5;entryDx=0;entryDy=0;strokeColor=default;align=center;verticalAlign=middle;fontFamily=Helvetica;fontSize=11;fontColor=default;labelBackgroundColor=default;endArrow=classic;" edge="1" parent="QxGWYKzPWFhETCY1hco7-469" source="QxGWYKzPWFhETCY1hco7-402" target="QxGWYKzPWFhETCY1hco7-404">
          <mxGeometry relative="1" as="geometry">
            <Array as="points">
              <mxPoint x="790" y="980" />
              <mxPoint x="790" y="860" />
            </Array>
          </mxGeometry>
        </mxCell>
        <mxCell id="QxGWYKzPWFhETCY1hco7-407" value="&lt;font style=&quot;font-size: 14px;&quot;&gt;Utiliza&lt;/font&gt;" style="edgeStyle=orthogonalEdgeStyle;curved=1;rounded=0;orthogonalLoop=1;jettySize=auto;html=1;exitX=0;exitY=0.25;exitDx=0;exitDy=0;entryX=1;entryY=0.5;entryDx=0;entryDy=0;strokeColor=default;align=center;verticalAlign=middle;fontFamily=Helvetica;fontSize=11;fontColor=default;labelBackgroundColor=default;endArrow=classic;" edge="1" parent="QxGWYKzPWFhETCY1hco7-469" source="QxGWYKzPWFhETCY1hco7-402" target="QxGWYKzPWFhETCY1hco7-405">
          <mxGeometry x="-0.6364" y="-5" relative="1" as="geometry">
            <Array as="points">
              <mxPoint x="790" y="980" />
              <mxPoint x="790" y="945" />
            </Array>
            <mxPoint as="offset" />
          </mxGeometry>
        </mxCell>
        <mxCell id="QxGWYKzPWFhETCY1hco7-412" value="&lt;font style=&quot;font-size: 14px;&quot;&gt;Consiste em&lt;/font&gt;" style="edgeStyle=orthogonalEdgeStyle;curved=1;rounded=0;orthogonalLoop=1;jettySize=auto;html=1;exitX=0;exitY=0.5;exitDx=0;exitDy=0;entryX=1;entryY=0.5;entryDx=0;entryDy=0;strokeColor=default;align=center;verticalAlign=middle;fontFamily=Helvetica;fontSize=11;fontColor=default;labelBackgroundColor=default;endArrow=classic;" edge="1" parent="QxGWYKzPWFhETCY1hco7-469" source="QxGWYKzPWFhETCY1hco7-402" target="QxGWYKzPWFhETCY1hco7-410">
          <mxGeometry relative="1" as="geometry" />
        </mxCell>
        <mxCell id="QxGWYKzPWFhETCY1hco7-402" value="&lt;span style=&quot;font-size: 16px;&quot;&gt;&lt;b&gt;Mecânicos Elásticos com transdutor de Pressão diferencial&lt;/b&gt;&lt;/span&gt;" style="rounded=1;whiteSpace=wrap;html=1;fontFamily=Helvetica;fontSize=11;fontColor=default;labelBackgroundColor=default;" vertex="1" parent="QxGWYKzPWFhETCY1hco7-469">
          <mxGeometry x="850" y="965" width="170" height="60" as="geometry" />
        </mxCell>
        <mxCell id="QxGWYKzPWFhETCY1hco7-404" value="&lt;span style=&quot;font-size: 16px;&quot;&gt;&lt;b&gt;Diafragma de Pressão&lt;/b&gt;&lt;/span&gt;" style="rounded=1;whiteSpace=wrap;html=1;fontFamily=Helvetica;fontSize=11;fontColor=default;labelBackgroundColor=default;" vertex="1" parent="QxGWYKzPWFhETCY1hco7-469">
          <mxGeometry x="610" y="830" width="110" height="60" as="geometry" />
        </mxCell>
        <mxCell id="QxGWYKzPWFhETCY1hco7-405" value="&lt;span style=&quot;font-size: 16px;&quot;&gt;&lt;b&gt;LVDT&lt;/b&gt;&lt;/span&gt;" style="rounded=1;whiteSpace=wrap;html=1;fontFamily=Helvetica;fontSize=11;fontColor=default;labelBackgroundColor=default;" vertex="1" parent="QxGWYKzPWFhETCY1hco7-469">
          <mxGeometry x="640" y="915" width="80" height="60" as="geometry" />
        </mxCell>
        <mxCell id="QxGWYKzPWFhETCY1hco7-410" value="uma bobina primária, duas bobinas secundárias (bs1 e bs2) ligadas em oposição de fase e um núcleo de ferro doce disposto simetricamente com relação às bobinas. Quando o sistema está em repouso, as tensões induzidas em bs1 e bs2 são idênticas, sendo a resultante V2 igual a zero. Quando há pressão aplicada, ocorre o deslocamento do núcleo, provocando tensões diferentes em bs1 e bs2 e, logo, V2 será diferente de zero." style="rounded=1;whiteSpace=wrap;html=1;" vertex="1" parent="QxGWYKzPWFhETCY1hco7-469">
          <mxGeometry x="145" y="1005" width="595" height="60" as="geometry" />
        </mxCell>
        <mxCell id="QxGWYKzPWFhETCY1hco7-415" value="Funciona por" style="edgeStyle=orthogonalEdgeStyle;curved=1;rounded=0;orthogonalLoop=1;jettySize=auto;html=1;exitX=0;exitY=0.5;exitDx=0;exitDy=0;entryX=1;entryY=0.5;entryDx=0;entryDy=0;strokeColor=default;align=center;verticalAlign=middle;fontFamily=Helvetica;fontSize=11;fontColor=default;labelBackgroundColor=default;endArrow=classic;" edge="1" parent="QxGWYKzPWFhETCY1hco7-469" source="QxGWYKzPWFhETCY1hco7-413" target="QxGWYKzPWFhETCY1hco7-414">
          <mxGeometry relative="1" as="geometry" />
        </mxCell>
        <mxCell id="QxGWYKzPWFhETCY1hco7-417" value="Características" style="edgeStyle=orthogonalEdgeStyle;curved=1;rounded=0;orthogonalLoop=1;jettySize=auto;html=1;exitX=0;exitY=0.5;exitDx=0;exitDy=0;entryX=1;entryY=0.5;entryDx=0;entryDy=0;strokeColor=default;align=center;verticalAlign=middle;fontFamily=Helvetica;fontSize=11;fontColor=default;labelBackgroundColor=default;endArrow=classic;" edge="1" parent="QxGWYKzPWFhETCY1hco7-469" source="QxGWYKzPWFhETCY1hco7-413" target="QxGWYKzPWFhETCY1hco7-416">
          <mxGeometry relative="1" as="geometry" />
        </mxCell>
        <mxCell id="QxGWYKzPWFhETCY1hco7-413" value="&lt;span style=&quot;font-size: 16px;&quot;&gt;&lt;b&gt;Capacitivos&lt;/b&gt;&lt;/span&gt;" style="rounded=1;whiteSpace=wrap;html=1;fontFamily=Helvetica;fontSize=11;fontColor=default;labelBackgroundColor=default;" vertex="1" parent="QxGWYKzPWFhETCY1hco7-469">
          <mxGeometry x="920" y="1215" width="100" height="60" as="geometry" />
        </mxCell>
        <mxCell id="QxGWYKzPWFhETCY1hco7-414" value="deformação efetuada pela pressão do processo que se deseja medir em uma das placas do elemento capacitivo,&amp;nbsp;Tal deformação altera o valor da capacitância total que é medida por um circuito eletrônico" style="rounded=1;whiteSpace=wrap;html=1;" vertex="1" parent="QxGWYKzPWFhETCY1hco7-469">
          <mxGeometry x="460" y="1155" width="370" height="60" as="geometry" />
        </mxCell>
        <mxCell id="QxGWYKzPWFhETCY1hco7-416" value="os sistemas de alavancas na transferência da força/ deslocamento entre o processo e o sensor." style="rounded=1;whiteSpace=wrap;html=1;" vertex="1" parent="QxGWYKzPWFhETCY1hco7-469">
          <mxGeometry x="560" y="1275" width="270" height="40" as="geometry" />
        </mxCell>
        <mxCell id="QxGWYKzPWFhETCY1hco7-418" value="Funciona por" style="edgeStyle=orthogonalEdgeStyle;curved=1;rounded=0;orthogonalLoop=1;jettySize=auto;html=1;exitX=0;exitY=0.5;exitDx=0;exitDy=0;entryX=1;entryY=0.5;entryDx=0;entryDy=0;strokeColor=default;align=center;verticalAlign=middle;fontFamily=Helvetica;fontSize=11;fontColor=default;labelBackgroundColor=default;endArrow=classic;" edge="1" source="QxGWYKzPWFhETCY1hco7-420" target="QxGWYKzPWFhETCY1hco7-421" parent="QxGWYKzPWFhETCY1hco7-469">
          <mxGeometry relative="1" as="geometry" />
        </mxCell>
        <mxCell id="QxGWYKzPWFhETCY1hco7-419" value="" style="edgeStyle=orthogonalEdgeStyle;curved=1;rounded=0;orthogonalLoop=1;jettySize=auto;html=1;exitX=0;exitY=0.5;exitDx=0;exitDy=0;entryX=1;entryY=0.5;entryDx=0;entryDy=0;strokeColor=default;align=center;verticalAlign=middle;fontFamily=Helvetica;fontSize=11;fontColor=default;labelBackgroundColor=default;endArrow=classic;" edge="1" source="QxGWYKzPWFhETCY1hco7-420" target="QxGWYKzPWFhETCY1hco7-422" parent="QxGWYKzPWFhETCY1hco7-469">
          <mxGeometry relative="1" as="geometry">
            <Array as="points">
              <mxPoint x="870" y="1435" />
              <mxPoint x="870" y="1485" />
            </Array>
          </mxGeometry>
        </mxCell>
        <mxCell id="QxGWYKzPWFhETCY1hco7-425" style="edgeStyle=orthogonalEdgeStyle;curved=1;rounded=0;orthogonalLoop=1;jettySize=auto;html=1;exitX=0;exitY=0.5;exitDx=0;exitDy=0;entryX=1;entryY=0.5;entryDx=0;entryDy=0;strokeColor=default;align=center;verticalAlign=middle;fontFamily=Helvetica;fontSize=11;fontColor=default;labelBackgroundColor=default;endArrow=classic;" edge="1" parent="QxGWYKzPWFhETCY1hco7-469" source="QxGWYKzPWFhETCY1hco7-420" target="QxGWYKzPWFhETCY1hco7-424">
          <mxGeometry relative="1" as="geometry">
            <Array as="points">
              <mxPoint x="870" y="1435" />
              <mxPoint x="870" y="1555" />
            </Array>
          </mxGeometry>
        </mxCell>
        <mxCell id="QxGWYKzPWFhETCY1hco7-426" value="Características" style="edgeLabel;html=1;align=center;verticalAlign=middle;resizable=0;points=[];fontFamily=Helvetica;fontSize=11;fontColor=default;labelBackgroundColor=default;" vertex="1" connectable="0" parent="QxGWYKzPWFhETCY1hco7-425">
          <mxGeometry x="0.072" y="-1" relative="1" as="geometry">
            <mxPoint x="1" y="-47" as="offset" />
          </mxGeometry>
        </mxCell>
        <mxCell id="QxGWYKzPWFhETCY1hco7-420" value="&lt;span style=&quot;font-size: 16px;&quot;&gt;&lt;b&gt;Piezoelétricos&lt;/b&gt;&lt;/span&gt;" style="rounded=1;whiteSpace=wrap;html=1;fontFamily=Helvetica;fontSize=11;fontColor=default;labelBackgroundColor=default;" vertex="1" parent="QxGWYKzPWFhETCY1hco7-469">
          <mxGeometry x="910" y="1405" width="110" height="60" as="geometry" />
        </mxCell>
        <mxCell id="QxGWYKzPWFhETCY1hco7-421" value="cristais, que acumulam cargas elétricas em certas áreas da estrutura cristalina, quando sofrem uma deformação física, por ação de uma pressão." style="rounded=1;whiteSpace=wrap;html=1;" vertex="1" parent="QxGWYKzPWFhETCY1hco7-469">
          <mxGeometry x="550" y="1345" width="280" height="60" as="geometry" />
        </mxCell>
        <mxCell id="QxGWYKzPWFhETCY1hco7-422" value="Resposta é linear com a variação de pressão." style="rounded=1;whiteSpace=wrap;html=1;" vertex="1" parent="QxGWYKzPWFhETCY1hco7-469">
          <mxGeometry x="560" y="1465" width="270" height="40" as="geometry" />
        </mxCell>
        <mxCell id="QxGWYKzPWFhETCY1hco7-424" value="Robustos e possuem resposta rápida para um&amp;nbsp;&lt;div&gt;&lt;span style=&quot;background-color: initial;&quot;&gt;larga de faixa de medição de pressão.&lt;/span&gt;&lt;/div&gt;" style="rounded=1;whiteSpace=wrap;html=1;" vertex="1" parent="QxGWYKzPWFhETCY1hco7-469">
          <mxGeometry x="560" y="1535" width="270" height="40" as="geometry" />
        </mxCell>
        <mxCell id="QxGWYKzPWFhETCY1hco7-427" value="&lt;span style=&quot;font-size: 16px;&quot;&gt;&lt;b&gt;Piezoresistivos&lt;/b&gt;&lt;/span&gt;" style="rounded=1;whiteSpace=wrap;html=1;fontFamily=Helvetica;fontSize=11;fontColor=default;labelBackgroundColor=default;" vertex="1" parent="QxGWYKzPWFhETCY1hco7-469">
          <mxGeometry x="900" y="1655" width="120" height="60" as="geometry" />
        </mxCell>
        <mxCell id="QxGWYKzPWFhETCY1hco7-429" value="Funciona por" style="edgeStyle=orthogonalEdgeStyle;curved=1;rounded=0;orthogonalLoop=1;jettySize=auto;html=1;exitX=0;exitY=0.5;exitDx=0;exitDy=0;entryX=1;entryY=0.5;entryDx=0;entryDy=0;strokeColor=default;align=center;verticalAlign=middle;fontFamily=Helvetica;fontSize=11;fontColor=default;labelBackgroundColor=default;endArrow=classic;" edge="1" source="QxGWYKzPWFhETCY1hco7-427" target="QxGWYKzPWFhETCY1hco7-434" parent="QxGWYKzPWFhETCY1hco7-469">
          <mxGeometry relative="1" as="geometry">
            <mxPoint x="900" y="1685" as="sourcePoint" />
          </mxGeometry>
        </mxCell>
        <mxCell id="QxGWYKzPWFhETCY1hco7-430" value="" style="edgeStyle=orthogonalEdgeStyle;curved=1;rounded=0;orthogonalLoop=1;jettySize=auto;html=1;exitX=0;exitY=0.5;exitDx=0;exitDy=0;entryX=1;entryY=0.5;entryDx=0;entryDy=0;strokeColor=default;align=center;verticalAlign=middle;fontFamily=Helvetica;fontSize=11;fontColor=default;labelBackgroundColor=default;endArrow=classic;" edge="1" source="QxGWYKzPWFhETCY1hco7-427" target="QxGWYKzPWFhETCY1hco7-437" parent="QxGWYKzPWFhETCY1hco7-469">
          <mxGeometry relative="1" as="geometry">
            <mxPoint x="900" y="1685" as="sourcePoint" />
            <mxPoint x="820" y="1735" as="targetPoint" />
            <Array as="points">
              <mxPoint x="860" y="1685" />
              <mxPoint x="860" y="1875" />
            </Array>
          </mxGeometry>
        </mxCell>
        <mxCell id="QxGWYKzPWFhETCY1hco7-431" style="edgeStyle=orthogonalEdgeStyle;curved=1;rounded=0;orthogonalLoop=1;jettySize=auto;html=1;exitX=0;exitY=0.5;exitDx=0;exitDy=0;entryX=1;entryY=0.5;entryDx=0;entryDy=0;strokeColor=default;align=center;verticalAlign=middle;fontFamily=Helvetica;fontSize=11;fontColor=default;labelBackgroundColor=default;endArrow=classic;" edge="1" source="QxGWYKzPWFhETCY1hco7-427" target="QxGWYKzPWFhETCY1hco7-438" parent="QxGWYKzPWFhETCY1hco7-469">
          <mxGeometry relative="1" as="geometry">
            <mxPoint x="900" y="1685" as="sourcePoint" />
            <mxPoint x="820" y="1805" as="targetPoint" />
            <Array as="points">
              <mxPoint x="860" y="1685" />
              <mxPoint x="860" y="1745" />
            </Array>
          </mxGeometry>
        </mxCell>
        <mxCell id="QxGWYKzPWFhETCY1hco7-434" value="Variação da resistência elétrica quando submetidos a uma força." style="rounded=1;whiteSpace=wrap;html=1;" vertex="1" parent="QxGWYKzPWFhETCY1hco7-469">
          <mxGeometry x="630" y="1595" width="190" height="60" as="geometry" />
        </mxCell>
        <mxCell id="QxGWYKzPWFhETCY1hco7-445" style="edgeStyle=orthogonalEdgeStyle;curved=1;rounded=0;orthogonalLoop=1;jettySize=auto;html=1;exitX=0;exitY=0.5;exitDx=0;exitDy=0;entryX=1;entryY=0.5;entryDx=0;entryDy=0;strokeColor=default;align=center;verticalAlign=middle;fontFamily=Helvetica;fontSize=11;fontColor=default;labelBackgroundColor=default;endArrow=classic;" edge="1" parent="QxGWYKzPWFhETCY1hco7-469" source="QxGWYKzPWFhETCY1hco7-437" target="QxGWYKzPWFhETCY1hco7-444">
          <mxGeometry relative="1" as="geometry" />
        </mxCell>
        <mxCell id="QxGWYKzPWFhETCY1hco7-446" style="edgeStyle=orthogonalEdgeStyle;curved=1;rounded=0;orthogonalLoop=1;jettySize=auto;html=1;exitX=0;exitY=0.5;exitDx=0;exitDy=0;entryX=1;entryY=0.5;entryDx=0;entryDy=0;strokeColor=default;align=center;verticalAlign=middle;fontFamily=Helvetica;fontSize=11;fontColor=default;labelBackgroundColor=default;endArrow=classic;" edge="1" parent="QxGWYKzPWFhETCY1hco7-469" source="QxGWYKzPWFhETCY1hco7-437" target="QxGWYKzPWFhETCY1hco7-443">
          <mxGeometry relative="1" as="geometry" />
        </mxCell>
        <mxCell id="QxGWYKzPWFhETCY1hco7-437" value="&lt;span style=&quot;font-size: 16px;&quot;&gt;&lt;b&gt;Strain Gauge&lt;/b&gt;&lt;/span&gt;" style="rounded=1;whiteSpace=wrap;html=1;fontFamily=Helvetica;fontSize=11;fontColor=default;labelBackgroundColor=default;" vertex="1" parent="QxGWYKzPWFhETCY1hco7-469">
          <mxGeometry x="670" y="1935" width="120" height="60" as="geometry" />
        </mxCell>
        <mxCell id="QxGWYKzPWFhETCY1hco7-438" value="&lt;span style=&quot;font-size: 16px;&quot;&gt;&lt;b&gt;Resistor sensor de força (FSR)&lt;/b&gt;&lt;/span&gt;" style="rounded=1;whiteSpace=wrap;html=1;fontFamily=Helvetica;fontSize=11;fontColor=default;labelBackgroundColor=default;" vertex="1" parent="QxGWYKzPWFhETCY1hco7-469">
          <mxGeometry x="660" y="1715" width="130" height="60" as="geometry" />
        </mxCell>
        <mxCell id="QxGWYKzPWFhETCY1hco7-439" value="Polímero que exibe uma diminuição da resistência&amp;nbsp; elétrica com o aumento da força na superfície ativa do sensor." style="rounded=1;whiteSpace=wrap;html=1;" vertex="1" parent="QxGWYKzPWFhETCY1hco7-469">
          <mxGeometry x="350" y="1655" width="230" height="60" as="geometry" />
        </mxCell>
        <mxCell id="QxGWYKzPWFhETCY1hco7-440" value="Funciona por" style="edgeStyle=orthogonalEdgeStyle;curved=1;rounded=0;orthogonalLoop=1;jettySize=auto;html=1;entryX=1;entryY=0.5;entryDx=0;entryDy=0;strokeColor=default;align=center;verticalAlign=middle;fontFamily=Helvetica;fontSize=11;fontColor=default;labelBackgroundColor=default;endArrow=classic;" edge="1" target="QxGWYKzPWFhETCY1hco7-439" parent="QxGWYKzPWFhETCY1hco7-469" source="QxGWYKzPWFhETCY1hco7-438">
          <mxGeometry relative="1" as="geometry">
            <mxPoint x="660" y="1745" as="sourcePoint" />
          </mxGeometry>
        </mxCell>
        <mxCell id="QxGWYKzPWFhETCY1hco7-441" value="Não linear, precisão muito baixa." style="rounded=1;whiteSpace=wrap;html=1;" vertex="1" parent="QxGWYKzPWFhETCY1hco7-469">
          <mxGeometry x="400" y="1775" width="180" height="40" as="geometry" />
        </mxCell>
        <mxCell id="QxGWYKzPWFhETCY1hco7-442" value="Características" style="edgeStyle=orthogonalEdgeStyle;curved=1;rounded=0;orthogonalLoop=1;jettySize=auto;html=1;entryX=1;entryY=0.5;entryDx=0;entryDy=0;strokeColor=default;align=center;verticalAlign=middle;fontFamily=Helvetica;fontSize=11;fontColor=default;labelBackgroundColor=default;endArrow=classic;" edge="1" target="QxGWYKzPWFhETCY1hco7-441" parent="QxGWYKzPWFhETCY1hco7-469" source="QxGWYKzPWFhETCY1hco7-438">
          <mxGeometry relative="1" as="geometry">
            <mxPoint x="660" y="1745" as="sourcePoint" />
            <Array as="points">
              <mxPoint x="620" y="1745" />
              <mxPoint x="620" y="1795" />
            </Array>
          </mxGeometry>
        </mxCell>
        <mxCell id="QxGWYKzPWFhETCY1hco7-454" style="edgeStyle=orthogonalEdgeStyle;curved=1;rounded=0;orthogonalLoop=1;jettySize=auto;html=1;exitX=0;exitY=0.5;exitDx=0;exitDy=0;strokeColor=default;align=center;verticalAlign=middle;fontFamily=Helvetica;fontSize=11;fontColor=default;labelBackgroundColor=default;endArrow=classic;" edge="1" parent="QxGWYKzPWFhETCY1hco7-469" source="QxGWYKzPWFhETCY1hco7-443" target="QxGWYKzPWFhETCY1hco7-447">
          <mxGeometry relative="1" as="geometry" />
        </mxCell>
        <mxCell id="QxGWYKzPWFhETCY1hco7-443" value="&lt;span style=&quot;font-size: 16px;&quot;&gt;&lt;b&gt;Metálicos&lt;/b&gt;&lt;/span&gt;" style="rounded=1;whiteSpace=wrap;html=1;fontFamily=Helvetica;fontSize=11;fontColor=default;labelBackgroundColor=default;" vertex="1" parent="QxGWYKzPWFhETCY1hco7-469">
          <mxGeometry x="460" y="1865" width="130" height="60" as="geometry" />
        </mxCell>
        <mxCell id="QxGWYKzPWFhETCY1hco7-453" value="Utilizado em" style="edgeStyle=orthogonalEdgeStyle;curved=1;rounded=0;orthogonalLoop=1;jettySize=auto;html=1;exitX=0;exitY=0.5;exitDx=0;exitDy=0;entryX=1;entryY=0.5;entryDx=0;entryDy=0;strokeColor=default;align=center;verticalAlign=middle;fontFamily=Helvetica;fontSize=11;fontColor=default;labelBackgroundColor=default;endArrow=classic;" edge="1" parent="QxGWYKzPWFhETCY1hco7-469" source="QxGWYKzPWFhETCY1hco7-444" target="QxGWYKzPWFhETCY1hco7-452">
          <mxGeometry relative="1" as="geometry" />
        </mxCell>
        <mxCell id="QxGWYKzPWFhETCY1hco7-456" value="Características" style="edgeStyle=orthogonalEdgeStyle;curved=1;rounded=0;orthogonalLoop=1;jettySize=auto;html=1;exitX=0;exitY=0.5;exitDx=0;exitDy=0;entryX=1;entryY=0.5;entryDx=0;entryDy=0;strokeColor=default;align=center;verticalAlign=middle;fontFamily=Helvetica;fontSize=11;fontColor=default;labelBackgroundColor=default;endArrow=classic;" edge="1" parent="QxGWYKzPWFhETCY1hco7-469" source="QxGWYKzPWFhETCY1hco7-444" target="QxGWYKzPWFhETCY1hco7-455">
          <mxGeometry relative="1" as="geometry" />
        </mxCell>
        <mxCell id="QxGWYKzPWFhETCY1hco7-444" value="&lt;span style=&quot;font-size: 16px;&quot;&gt;&lt;b&gt;Semicondutores&lt;/b&gt;&lt;/span&gt;" style="rounded=1;whiteSpace=wrap;html=1;fontFamily=Helvetica;fontSize=11;fontColor=default;labelBackgroundColor=default;" vertex="1" parent="QxGWYKzPWFhETCY1hco7-469">
          <mxGeometry x="460" y="1995" width="130" height="60" as="geometry" />
        </mxCell>
        <mxCell id="QxGWYKzPWFhETCY1hco7-447" value="Pequenos elementos resistivos adesivos&lt;br/&gt;que podem ser fixados em vigas, barras&lt;br/&gt;cilíndricas" style="rounded=1;whiteSpace=wrap;html=1;" vertex="1" parent="QxGWYKzPWFhETCY1hco7-469">
          <mxGeometry x="145" y="1865" width="230" height="60" as="geometry" />
        </mxCell>
        <mxCell id="QxGWYKzPWFhETCY1hco7-452" value="microfones, instrumentação&lt;br/&gt;biomédica, sensores de vácuo, aplicações&lt;br/&gt;automotivas, medição de nível." style="rounded=1;whiteSpace=wrap;html=1;" vertex="1" parent="QxGWYKzPWFhETCY1hco7-469">
          <mxGeometry x="134.5" y="1965" width="230" height="60" as="geometry" />
        </mxCell>
        <mxCell id="QxGWYKzPWFhETCY1hco7-455" value="Sinais muito pequenos (µV e mV) e&lt;br/&gt;sensíveis a variação de temperatura.&amp;nbsp;" style="rounded=1;whiteSpace=wrap;html=1;" vertex="1" parent="QxGWYKzPWFhETCY1hco7-469">
          <mxGeometry x="134.5" y="2085" width="230" height="60" as="geometry" />
        </mxCell>
        <mxCell id="QxGWYKzPWFhETCY1hco7-458" value="" style="curved=1;endArrow=classic;html=1;rounded=0;strokeColor=default;align=center;verticalAlign=middle;fontFamily=Helvetica;fontSize=11;fontColor=default;labelBackgroundColor=default;edgeStyle=orthogonalEdgeStyle;entryX=1;entryY=0.5;entryDx=0;entryDy=0;" edge="1" parent="QxGWYKzPWFhETCY1hco7-469" target="QxGWYKzPWFhETCY1hco7-401">
          <mxGeometry width="50" height="50" relative="1" as="geometry">
            <mxPoint x="1320" y="520" as="sourcePoint" />
            <mxPoint x="1380" y="800" as="targetPoint" />
            <Array as="points">
              <mxPoint x="1310" y="1105" />
            </Array>
          </mxGeometry>
        </mxCell>
      </root>
    </mxGraphModel>
  </diagram>
</mxfile>
